<?xml version="1.0" encoding="utf-8"?>
<!-- Generator: Adobe Illustrator 24.3.0, SVG Export Plug-In . SVG Version: 6.00 Build 0)  -->
<svg version="1.1" id="Layer_1" xmlns="http://www.w3.org/2000/svg" xmlns:xlink="http://www.w3.org/1999/xlink" x="0px" y="0px"
	 viewBox="0 0 300 300" enable-background="new 0 0 300 300" xml:space="preserve">
<g>
	<g>
		<g>
			<path fill="#A880B2" d="M210.785,62.516v6.9c0,4.082-3.309,7.392-7.394,7.392c-4.079,0-7.388-3.311-7.388-7.392v-6.9H95.514v6.9
				c0,4.082-3.309,7.392-7.388,7.392c-4.085,0-7.394-3.311-7.394-7.392v-6.9H60.486V88.94h170.551V62.516H210.785z"/>
		</g>
		<g>
			<path fill="#FE6F80" d="M95.514,69.416c0,4.082-3.309,7.392-7.388,7.392l0,0c-4.085,0-7.394-3.311-7.394-7.392V55.618
				c0-4.082,3.309-7.391,7.394-7.391l0,0c4.079,0,7.388,3.309,7.388,7.391V69.416z"/>
		</g>
		<g>
			<path fill="#FE6F80" d="M210.785,69.416c0,4.082-3.309,7.392-7.394,7.392l0,0c-4.079,0-7.388-3.311-7.388-7.392V55.618
				c0-4.082,3.309-7.391,7.388-7.391l0,0c4.085,0,7.394,3.309,7.394,7.391V69.416z"/>
		</g>
		<g>
			<path fill="#FFA1AA" d="M88.12,69.414V55.617c0-2.729,1.498-5.085,3.7-6.365c-1.089-0.635-2.344-1.026-3.694-1.026
				c-4.085,0-7.394,3.309-7.394,7.391v13.798c0,4.082,3.309,7.393,7.394,7.393c1.35,0,2.605-0.391,3.694-1.026
				C89.617,74.501,88.12,72.144,88.12,69.414z"/>
		</g>
		<g>
			<path fill="#FFA1AA" d="M203.391,69.414V55.617c0-2.729,1.498-5.085,3.7-6.365c-1.089-0.635-2.344-1.026-3.694-1.026
				c-4.085,0-7.394,3.309-7.394,7.391v13.798c0,4.082,3.309,7.393,7.394,7.393c1.35,0,2.605-0.391,3.694-1.026
				C204.889,74.501,203.391,72.144,203.391,69.414z"/>
		</g>
		<g>
			<path fill="#F4F4F4" d="M60.504,88.94l-0.018,109.454v17.758c0,7.782,6.305,14.085,14.083,14.085
				c7.779,0.003,14.083-6.302,14.083-14.083v-17.76h142.384V88.94H60.504z"/>
		</g>
		<g>
			<path fill="#F9F9F9" d="M71.604,216.151v-17.758L71.621,88.94H60.504l-0.018,109.454v17.758c0,7.782,6.305,14.085,14.083,14.085
				c1.977,0.001,3.854-0.413,5.559-1.147C75.114,226.933,71.604,221.957,71.604,216.151z"/>
		</g>
		<g>
			<path fill="#E5E5E4" d="M224.596,198.393L224.596,198.393H88.653v17.76c0,7.363-5.648,13.396-12.852,14.023
				c19.654,0.007,161.399,0.061,161.784,0.061c7.785,0.003,14.089-6.302,14.089-14.083v-17.76H224.596z"/>
		</g>
		<g>
			<path fill="#D8D8D8" d="M75.8,230.176c-15.315,0-15.315-14.024-15.315-14.024v24.347h170.551v-10.266
				C194.89,230.22,91.713,230.183,75.8,230.176z"/>
		</g>
		<g>
			<path fill="#E2E2E2" d="M60.486,216.151v24.347h11.118v-10.764C60.521,227.421,60.486,216.151,60.486,216.151z"/>
		</g>
		<g>
			<path fill="#FE6F80" d="M266.846,39.94h-3.262v-3.268c0-2.424-1.965-4.388-4.392-4.388c-2.421,0-4.387,1.964-4.387,4.388v3.268
				h-3.262c-2.427,0-4.393,1.964-4.393,4.389c0,2.423,1.966,4.385,4.393,4.385h3.262v3.268c0,2.423,1.966,4.388,4.387,4.388
				c2.427,0,4.392-1.965,4.392-4.388v-3.268h3.262c2.427,0,4.392-1.962,4.392-4.385C271.239,41.903,269.273,39.94,266.846,39.94z"/>
		</g>
		<g>
			<path fill="#FE6F80" d="M262.181,71.427h-3.262v-3.268c0-2.424-1.965-4.388-4.393-4.388c-2.421,0-4.386,1.964-4.386,4.388v3.268
				h-3.262c-2.427,0-4.393,1.964-4.393,4.39c0,2.423,1.965,4.385,4.393,4.385h3.262v3.268c0,2.423,1.965,4.388,4.386,4.388
				c2.427,0,4.393-1.966,4.393-4.388v-3.268h3.262c2.427,0,4.392-1.963,4.392-4.385C266.574,73.391,264.608,71.427,262.181,71.427z"
				/>
		</g>
		<g>
			<path fill="#FE6F80" d="M48.457,251.793h-3.268v-3.268c0-2.424-1.965-4.388-4.386-4.388c-2.422,0-4.387,1.964-4.387,4.388v3.268
				h-3.268c-2.427,0-4.387,1.964-4.387,4.389c0,2.423,1.96,4.385,4.387,4.385h3.268v3.268c0,2.423,1.965,4.388,4.387,4.388
				c2.421,0,4.386-1.966,4.386-4.388v-3.268h3.268c2.427,0,4.386-1.962,4.386-4.385C52.843,253.757,50.884,251.793,48.457,251.793z"
				/>
		</g>
		<g>
			<path fill="#A880B2" d="M237.164,37.598c0,3.716-3.013,6.73-6.731,6.73c-3.717,0-6.731-3.013-6.731-6.73
				c0-3.716,3.013-6.729,6.731-6.729C234.151,30.869,237.164,33.882,237.164,37.598z"/>
		</g>
		<g>
			<path fill="#B999C1" d="M229.249,37.598c0-2.725,1.628-5.058,3.96-6.116c-0.852-0.385-1.782-0.613-2.776-0.613
				c-3.717,0-6.731,3.013-6.731,6.729c0,3.716,3.013,6.73,6.731,6.73c0.995,0,1.924-0.228,2.776-0.613
				C230.877,42.657,229.249,40.323,229.249,37.598z"/>
		</g>
		<g>
			<path fill="#A880B2" d="M78.328,257.682c0,3.716-3.013,6.729-6.725,6.729c-3.718,0-6.731-3.013-6.731-6.729
				c0-3.716,3.013-6.73,6.731-6.73C75.315,250.953,78.328,253.966,78.328,257.682z"/>
		</g>
		<g>
			<path fill="#A880B2" d="M49.031,225.604c0,3.716-3.013,6.729-6.731,6.729s-6.731-3.013-6.731-6.729
				c0-3.716,3.013-6.73,6.731-6.73S49.031,221.888,49.031,225.604z"/>
		</g>
		<g>
			<path fill="#A880B2" d="M182.074,148.718c0-5.189-4.203-9.393-9.389-9.393c-5.044,0-9.146,3.971-9.377,8.955l-0.029-0.013
				l-0.012,0.006c-0.237-4.98-4.333-8.948-9.371-8.948c-5.186,0-9.395,4.204-9.395,9.393c0,2.307,0.835,4.418,2.22,6.054h-0.006
				l16.576,18.665l16.575-18.665l-0.006-0.003C181.239,153.136,182.074,151.026,182.074,148.718z"/>
		</g>
		<g>
			<path fill="#FE6F80" d="M146.714,154.773h0.006c-1.385-1.637-2.22-3.747-2.22-6.054c0-5.189,4.209-9.393,9.395-9.393
				c5.038,0,9.134,3.968,9.371,8.948l0.012-0.006l0.029,0.013c0.219-4.693,3.883-8.446,8.519-8.872
				c1.243-2.258,1.983-4.838,1.983-7.601c0-8.736-7.08-15.819-15.818-15.819c-8.489,0-15.397,6.688-15.782,15.082l-0.053-0.022
				l-0.024,0.01c-0.397-8.388-7.293-15.071-15.782-15.071c-8.738,0-15.818,7.083-15.818,15.819c0,3.886,1.403,7.441,3.73,10.198l0,0
				l27.912,31.433l10.555-11.89L146.714,154.773z"/>
		</g>
		<g>
			<path fill="#B999C1" d="M152.581,154.773h0.006c-1.385-1.637-2.22-3.747-2.22-6.054c0-4.16,2.723-7.647,6.464-8.881
				c-0.923-0.308-1.906-0.512-2.936-0.512c-5.186,0-9.395,4.204-9.395,9.393c0,2.307,0.835,4.418,2.22,6.054h-0.006l16.576,18.665
				l2.93-3.303L152.581,154.773z"/>
		</g>
		<g>
			<path fill="#FFA1AA" d="M122.976,142.005L122.976,142.005c-2.326-2.757-3.73-6.312-3.73-10.198
				c0-7.215,4.86-13.234,11.467-15.136c-1.397-0.403-2.842-0.684-4.363-0.684c-8.738,0-15.818,7.083-15.818,15.819
				c0,3.886,1.403,7.441,3.73,10.198l0,0l27.912,31.433l4.357-4.906L122.976,142.005z"/>
		</g>
		<g>
			<rect x="60.486" y="62.516" fill="#B999C1" width="11.135" height="26.423"/>
		</g>
		<g>
			<path fill="#B999C1" d="M41.116,225.604c0-2.725,1.628-5.059,3.96-6.117c-0.852-0.385-1.782-0.613-2.776-0.613
				c-3.718,0-6.731,3.013-6.731,6.73c0,3.716,3.013,6.729,6.731,6.729c0.994,0,1.924-0.228,2.776-0.613
				C42.744,230.662,41.116,228.328,41.116,225.604z"/>
		</g>
		<g>
			<path fill="#B999C1" d="M70.42,257.682c0-2.725,1.628-5.059,3.954-6.117c-0.847-0.385-1.782-0.613-2.77-0.613
				c-3.718,0-6.731,3.013-6.731,6.73c0,3.716,3.013,6.729,6.731,6.729c0.988,0,1.924-0.228,2.77-0.613
				C72.048,262.741,70.42,260.407,70.42,257.682z"/>
		</g>
	</g>
	<g>
		<g>
			<path fill="#161616" d="M231.037,93.486H60.486c-2.51,0-4.546-2.035-4.546-4.546V62.516c0-2.511,2.036-4.546,4.546-4.546h20.246
				c2.51,0,4.546,2.035,4.546,4.546v6.9c0,1.569,1.279,2.846,2.848,2.846c1.566,0,2.841-1.277,2.841-2.846v-6.9
				c0-2.511,2.036-4.546,4.547-4.546h62.247c2.51,0,4.546,2.035,4.546,4.546c0,2.512-2.036,4.546-4.546,4.546H100.06v2.353
				c0,6.583-5.354,11.939-11.934,11.939c-6.583,0-11.94-5.356-11.94-11.939v-2.353H65.033v17.33H226.49v-17.33h-11.159v2.353
				c0,6.583-5.357,11.939-11.94,11.939c-6.58,0-11.934-5.356-11.934-11.939v-2.353h-13.551c-2.51,0-4.546-2.035-4.546-4.546
				c0-2.511,2.036-4.546,4.546-4.546h18.097c2.51,0,4.546,2.035,4.546,4.546v6.9c0,1.569,1.276,2.846,2.842,2.846
				c1.569,0,2.847-1.277,2.847-2.846v-6.9c0-2.511,2.036-4.546,4.546-4.546h20.252c2.51,0,4.547,2.035,4.547,4.546V88.94
				C235.583,91.451,233.547,93.486,231.037,93.486z"/>
		</g>
		<g>
			<path fill="#161616" d="M88.126,81.355c-6.583,0-11.94-5.356-11.94-11.939V55.618c0-6.583,5.357-11.937,11.94-11.937
				c6.58,0,11.934,5.354,11.934,11.937v13.798C100.06,75.999,94.706,81.355,88.126,81.355z M88.126,52.774
				c-1.569,0-2.848,1.276-2.848,2.845v13.798c0,1.569,1.279,2.846,2.848,2.846c1.566,0,2.841-1.277,2.841-2.846V55.618
				C90.967,54.049,89.692,52.774,88.126,52.774z"/>
		</g>
		<g>
			<path fill="#161616" d="M203.391,81.355c-6.58,0-11.934-5.356-11.934-11.939V55.618c0-6.583,5.354-11.937,11.934-11.937
				c6.583,0,11.94,5.354,11.94,11.937v13.798C215.332,75.999,209.974,81.355,203.391,81.355z M203.391,52.774
				c-1.566,0-2.842,1.276-2.842,2.845v13.798c0,1.569,1.276,2.846,2.842,2.846c1.569,0,2.847-1.277,2.847-2.846V55.618
				C206.239,54.049,204.96,52.774,203.391,52.774z"/>
		</g>
		<g>
			<path fill="#161616" d="M74.575,234.783c-0.003,0-0.006,0-0.009,0c-10.271,0-18.627-8.357-18.627-18.631l0.012-86.055
				c0-2.51,2.036-4.545,4.546-4.545l0,0c2.513,0,4.546,2.036,4.546,4.548l-0.012,86.052c0,5.26,4.277,9.538,9.537,9.538h0.003
				c2.548,0,4.94-0.992,6.74-2.791c1.803-1.801,2.794-4.197,2.794-6.746v-17.759c0-2.512,2.036-4.547,4.547-4.547H226.49V93.486
				H65.05l-0.006,16.467c0,2.51-2.036,4.545-4.546,4.545l0,0c-2.513,0-4.546-2.036-4.546-4.548l0.006-21.012
				c0-2.51,2.036-4.545,4.547-4.545h170.533c2.51,0,4.547,2.035,4.547,4.546v109.454c0,2.511-2.036,4.546-4.547,4.546H93.199v13.213
				c0,4.979-1.939,9.657-5.455,13.176C84.225,232.845,79.548,234.783,74.575,234.783z"/>
		</g>
		<g>
			<path fill="#161616" d="M237.59,234.783c-0.003,0-0.006,0-0.009,0c-0.382,0-142.13-0.053-161.784-0.061
				c-2.433-0.001-4.434-1.918-4.54-4.35c-0.104-2.433,1.726-4.515,4.15-4.725c4.961-0.432,8.699-4.512,8.699-9.494v-17.759
				c0-2.512,2.036-4.547,4.547-4.547h163.021c2.51,0,4.546,2.035,4.546,4.547v17.759c0,4.979-1.939,9.658-5.458,13.176
				C247.245,232.845,242.566,234.783,237.59,234.783z M90.645,225.635c41.948,0.015,146.599,0.055,146.94,0.055h0.003
				c2.551,0,4.946-0.992,6.746-2.791c1.803-1.801,2.794-4.197,2.794-6.746V202.94H93.199v13.213
				C93.199,219.617,92.273,222.859,90.645,225.635z"/>
		</g>
		<g>
			<path fill="#161616" d="M231.037,245.045H60.486c-2.51,0-4.546-2.035-4.546-4.547v-24.347c0-2.511,2.036-4.546,4.546-4.546
				s4.547,2.035,4.547,4.546c0.041,2.193,0.938,9.478,10.768,9.478c0,0,0,0,0.003,0l155.236,0.056
				c2.51,0.001,4.544,2.036,4.544,4.546v10.266C235.583,243.01,233.547,245.045,231.037,245.045z M65.033,235.952H226.49v-1.175
				l-150.693-0.055c-4.49,0-8.015-1.02-10.765-2.605V235.952z"/>
		</g>
		<g>
			<path fill="#161616" d="M266.846,39.94h-3.262v-3.268c0-2.424-1.965-4.388-4.392-4.388c-2.421,0-4.387,1.964-4.387,4.388v3.268
				h-3.262c-2.427,0-4.393,1.964-4.393,4.389c0,2.423,1.966,4.385,4.393,4.385h3.262v3.268c0,2.423,1.966,4.388,4.387,4.388
				c2.427,0,4.392-1.965,4.392-4.388v-3.268h3.262c2.427,0,4.392-1.962,4.392-4.385C271.239,41.903,269.273,39.94,266.846,39.94z"/>
		</g>
		<g>
			<path fill="#161616" d="M262.181,71.427h-3.262v-3.268c0-2.424-1.965-4.388-4.393-4.388c-2.421,0-4.386,1.964-4.386,4.388v3.268
				h-3.262c-2.427,0-4.393,1.964-4.393,4.39c0,2.423,1.965,4.385,4.393,4.385h3.262v3.268c0,2.423,1.965,4.388,4.386,4.388
				c2.427,0,4.393-1.966,4.393-4.388v-3.268h3.262c2.427,0,4.392-1.963,4.392-4.385C266.574,73.391,264.608,71.427,262.181,71.427z"
				/>
		</g>
		<g>
			<path fill="#161616" d="M48.457,251.793h-3.268v-3.268c0-2.424-1.965-4.388-4.386-4.388c-2.422,0-4.387,1.964-4.387,4.388v3.268
				h-3.268c-2.427,0-4.387,1.964-4.387,4.389c0,2.423,1.96,4.385,4.387,4.385h3.268v3.268c0,2.423,1.965,4.388,4.387,4.388
				c2.421,0,4.386-1.966,4.386-4.388v-3.268h3.268c2.427,0,4.386-1.962,4.386-4.385C52.843,253.757,50.884,251.793,48.457,251.793z"
				/>
		</g>
		<g>
			<path fill="#161616" d="M237.164,37.598c0,3.716-3.013,6.73-6.731,6.73c-3.717,0-6.731-3.013-6.731-6.73
				c0-3.716,3.013-6.729,6.731-6.729C234.151,30.869,237.164,33.882,237.164,37.598z"/>
		</g>
		<g>
			<path fill="#161616" d="M78.328,257.682c0,3.716-3.013,6.729-6.725,6.729c-3.718,0-6.731-3.013-6.731-6.729
				c0-3.716,3.013-6.73,6.731-6.73C75.315,250.953,78.328,253.966,78.328,257.682z"/>
		</g>
		<g>
			<path fill="#161616" d="M49.031,225.604c0,3.716-3.013,6.729-6.731,6.729s-6.731-3.013-6.731-6.729
				c0-3.716,3.013-6.73,6.731-6.73S49.031,221.888,49.031,225.604z"/>
		</g>
		<g>
			<path fill="#161616" d="M163.213,177.985c-1.299,0-2.537-0.557-3.401-1.527l-16.576-18.665c-2.193-2.602-3.36-5.793-3.36-9.074
				c0-7.687,6.254-13.94,13.941-13.94c3.614,0,6.911,1.374,9.392,3.638c2.48-2.264,5.781-3.638,9.398-3.638
				c7.684,0,13.935,6.253,13.935,13.94c0,3.185-1.098,6.283-3.099,8.757c-0.08,0.108-0.166,0.215-0.255,0.317l-16.576,18.665
				C165.75,177.428,164.513,177.985,163.213,177.985z M153.818,143.871c-2.673,0-4.848,2.174-4.848,4.847
				c0,1.459,0.622,2.501,1.143,3.117l13.101,14.755l13.015-14.655c0.027-0.034,0.053-0.067,0.08-0.099
				c0.521-0.616,1.142-1.658,1.142-3.118c0-2.673-2.173-4.847-4.842-4.847c-2.593,0-4.715,2.029-4.837,4.619
				c-0.068,1.504-0.879,2.876-2.161,3.664c-1.131,0.693-2.492,0.855-3.741,0.463c-0.335-0.102-0.663-0.244-0.971-0.425
				c-1.326-0.777-2.178-2.17-2.249-3.704C158.525,145.899,156.402,143.871,153.818,143.871z"/>
		</g>
		<g>
			<path fill="#161616" d="M142.097,177.985c-1.299,0-2.537-0.557-3.401-1.527l-27.912-31.433c-3.17-3.756-4.875-8.419-4.875-13.217
				c0-11.23,9.134-20.366,20.364-20.366c6.379,0,12.082,2.927,15.818,7.54c3.732-4.615,9.439-7.54,15.824-7.54
				c11.23,0,20.364,9.136,20.364,20.366c0,3.38-0.882,6.766-2.546,9.793c-0.728,1.323-2.066,2.198-3.567,2.335
				c-2.395,0.221-4.283,2.18-4.396,4.557c-0.068,1.504-0.879,2.876-2.161,3.663c-1.131,0.693-2.492,0.855-3.741,0.463
				c-0.335-0.102-0.663-0.244-0.971-0.425c-1.326-0.777-2.178-2.17-2.249-3.704c-0.124-2.59-2.247-4.618-4.831-4.618
				c-2.673,0-4.848,2.174-4.848,4.847c0,1.459,0.622,2.501,1.143,3.117v0.003l5.941,6.692c1.527,1.721,1.527,4.314,0,6.035
				l-10.555,11.89C144.634,177.428,143.396,177.985,142.097,177.985z M126.273,120.534c-6.216,0-11.271,5.057-11.271,11.273
				c0,2.655,0.944,5.235,2.658,7.267l24.437,27.517l4.475-5.042l-3.336-3.758c-0.024-0.028-0.05-0.058-0.077-0.087
				c-2.116-2.513-3.283-5.704-3.283-8.985c0-7.687,6.254-13.94,13.941-13.94c3.632,0,6.947,1.387,9.43,3.672
				c1.51-1.37,3.321-2.42,5.322-3.028c0.408-1.171,0.616-2.381,0.616-3.615c0-6.216-5.055-11.273-11.271-11.273
				c-6.026,0-10.964,4.72-11.242,10.745c-0.068,1.481-0.852,2.837-2.104,3.63c-1.116,0.709-2.469,0.892-3.727,0.521
				c-0.409-0.114-0.805-0.286-1.172-0.515c-1.273-0.789-2.084-2.147-2.155-3.642C137.231,125.25,132.291,120.534,126.273,120.534z"
				/>
		</g>
	</g>
</g>
</svg>
