<?xml version="1.0" encoding="utf-8"?>
<!-- Generator: Adobe Illustrator 24.3.0, SVG Export Plug-In . SVG Version: 6.00 Build 0)  -->
<svg version="1.1" id="Layer_1" xmlns="http://www.w3.org/2000/svg" xmlns:xlink="http://www.w3.org/1999/xlink" x="0px" y="0px"
	 viewBox="0 0 300 300" enable-background="new 0 0 300 300" xml:space="preserve">
<g>
	<g>
		<g>
			<path fill="#F4F4F4" d="M207.562,161.087c-30.005-33.166-12.772-59.539-11.902-60.823l0.056-0.065h-0.018
				c3.807-4.514,6.115-10.333,6.115-16.691c0-9.404-5.029-17.615-12.523-22.152c0.032-0.284,0.086-0.56,0.086-0.85v-24.41
				c0-4.026-3.268-7.293-7.293-7.293c-4.025,0-7.293,3.268-7.293,7.293V57.65c-13.376,0.574-24.109,11.274-24.73,24.641
				l-0.083-0.038l-0.042,0.018c-0.604-13.015-10.81-23.516-23.712-24.57V36.095c0-4.026-3.268-7.293-7.297-7.293
				c-4.022,0-7.29,3.268-7.29,7.293v24.41c0,0.095,0.021,0.181,0.024,0.266c-8.028,4.404-13.474,12.929-13.474,22.735
				c0,6.358,2.306,12.177,6.112,16.691h-0.012l0.042,0.047c0.666,0.971,18.304,27.468-11.89,60.841
				c-30.769,34.007-51.011,42.102-51.011,96.351c0,0,22.013,12.852,108.573,12.852s108.573-12.852,108.573-12.852
				C258.573,203.189,238.33,195.094,207.562,161.087z"/>
		</g>
		<g>
			<path fill="#F9F9F9" d="M199.804,264.649c-0.557-28.613-9.649-47.809-9.649-47.809c5.42,16.2,3.108,48.108,3.105,48.226
				c-35.898,1.98-65.231-0.231-87.359-3.519c-2.415-15.406,6.458-54.303,6.458-54.303c-9.575,15.622-12.902,53.101-12.92,53.282
				c-27.519-4.627-42.134-10.608-42.134-10.608h-0.003c1.841-47.539,21.575-56.467,50.858-88.83
				c30.194-33.373,12.556-59.871,11.89-60.841l-0.041-0.047h0.012c-3.807-4.514-6.112-10.333-6.112-16.691
				c0-9.806,5.446-18.331,13.474-22.735c-0.003-0.086-0.024-0.172-0.024-0.266v-2.661c-0.379-0.048-0.752-0.113-1.134-0.145V36.095
				c0-4.026-3.268-7.293-7.297-7.293c-4.022,0-7.29,3.268-7.29,7.293v24.41c0,0.095,0.021,0.181,0.024,0.266
				c-8.028,4.404-13.474,12.929-13.474,22.735c0,6.358,2.306,12.177,6.112,16.691h-0.012l0.042,0.047
				c0.666,0.971,18.304,27.468-11.89,60.841c-30.769,34.007-51.011,42.102-51.011,96.351c0,0,20.172,9.75,86.344,12.612
				c95.342,4.126,130.802-12.612,130.802-12.612C237.454,261.159,217.859,263.424,199.804,264.649z M105.083,261.426
				c-1.444-0.216-2.841-0.441-4.224-0.666L105.083,261.426z"/>
		</g>
		<g>
			<path fill="#FE6F80" d="M193.259,138.651c-1.758-4.615-2.708-8.945-3.09-12.911c-16.792,4.609-45.953,9.126-80.306-0.314
				c-0.355,3.963-1.273,8.291-2.998,12.908C124.293,143.484,157.933,150.023,193.259,138.651z"/>
		</g>
		<g>
			<path fill="#FFA1AA" d="M125.148,128.783c-4.964-0.841-10.055-1.921-15.285-3.357c-0.003,0.048-0.012,0.095-0.018,0.142
				c-0.08,0.858-0.189,1.737-0.326,2.628c-0.03,0.195-0.062,0.394-0.094,0.589c-0.136,0.835-0.299,1.681-0.489,2.54
				c-0.033,0.154-0.062,0.305-0.098,0.459c-0.474,2.063-1.107,4.197-1.924,6.399c-0.018,0.05-0.029,0.101-0.05,0.151
				c3.961,1.169,8.797,2.407,14.264,3.493C123.221,137.198,124.485,132.829,125.148,128.783z"/>
		</g>
	</g>
	<g>
		<g>
			<path fill="#161616" d="M150,274.837c-86.791,0-109.923-12.923-110.864-13.474c-1.397-0.814-2.255-2.309-2.255-3.925
				c0-46.015,14.438-60.643,36.295-82.78c5.029-5.097,10.229-10.363,15.892-16.623c27.146-30.002,12.87-53.163,11.579-55.117
				c-4.52-5.458-7.006-12.343-7.006-19.411c0-10.188,5.088-19.636,13.45-25.269V36.095c0-6.53,5.31-11.84,11.837-11.84
				c6.53,0,11.843,5.31,11.843,11.84v17.709c8.098,1.817,14.965,6.873,19.198,13.707c4.392-7.163,11.665-12.313,20.275-13.912
				V36.095c0-6.53,5.31-11.84,11.84-11.84s11.84,5.31,11.84,11.84v22.889c7.835,5.731,12.438,14.711,12.438,24.523
				c0,7.027-2.46,13.873-6.935,19.32c-0.033,0.047-0.065,0.092-0.101,0.136c-1.462,2.267-15.217,25.423,11.609,55.075
				c5.662,6.257,10.863,11.523,15.892,16.62c21.856,22.137,36.295,36.765,36.295,82.78c0,1.616-0.858,3.114-2.259,3.928
				c-1.065,0.622-11.325,6.183-42.774,9.993c-2.489,0.284-4.757-1.474-5.061-3.966c-0.302-2.492,1.474-4.759,3.966-5.061
				c21.687-2.625,32.66-6.124,37.014-7.826c-0.58-39.962-13.148-52.69-33.651-73.459c-4.86-4.925-10.369-10.505-16.164-16.907
				c-31.648-34.983-13.986-63.843-12.381-66.297c0.121-0.201,0.26-0.394,0.414-0.574c3.253-3.857,5.044-8.744,5.044-13.761
				c0-7.518-3.863-14.347-10.333-18.263c-1.518-0.921-2.362-2.64-2.161-4.407c0.003-0.033,0.039-0.305,0.044-0.337l0.012-24.405
				c0-1.515-1.231-2.747-2.747-2.747s-2.747,1.231-2.747,2.747V57.65c0,2.436-1.918,4.437-4.351,4.544
				c-11.106,0.476-19.867,9.208-20.385,20.308c-0.068,1.515-0.888,2.892-2.184,3.679c-1.14,0.69-2.51,0.847-3.765,0.432
				c-0.388-0.113-0.761-0.281-1.11-0.497c-1.261-0.793-2.078-2.146-2.146-3.635c-0.497-10.674-8.898-19.379-19.541-20.249
				c-2.359-0.192-4.176-2.164-4.176-4.532V36.095c0-1.515-1.234-2.747-2.75-2.747c-1.513,0-2.744,1.231-2.744,2.747v24.218
				c0.009,0.112,0.018,0.228,0.021,0.302c0.059,1.714-0.852,3.318-2.356,4.144c-6.855,3.759-11.114,10.946-11.114,18.748
				c0,5.017,1.791,9.904,5.041,13.761c0.136,0.16,0.26,0.329,0.37,0.506c1.489,2.232,19.589,31.079-12.334,66.365
				c-5.796,6.402-11.304,11.982-16.164,16.907c-20.503,20.77-33.071,33.503-33.651,73.456c7.492,2.912,34.966,11.242,104.006,11.242
				c17.123,0,32.962-0.512,47.069-1.524c2.501-0.198,4.68,1.705,4.86,4.209c0.181,2.504-1.705,4.68-4.209,4.86
				C183.397,274.316,167.339,274.837,150,274.837z"/>
		</g>
		<g>
			<path fill="#161616" d="M58.97,233.511c-0.349,0-0.705-0.038-1.063-0.124c-2.442-0.586-3.946-3.04-3.362-5.482
				c7.166-29.919,38.71-50.408,40.051-51.266c2.11-1.356,4.922-0.734,6.275,1.376c1.356,2.113,0.743,4.925-1.37,6.281
				c-0.296,0.189-29.81,19.411-36.111,45.728C62.889,232.108,61.025,233.511,58.97,233.511z"/>
		</g>
		<g>
			<path fill="#161616" d="M57.265,252.581c-0.092,0-0.183-0.003-0.278-0.009c-2.507-0.151-4.416-2.306-4.262-4.813l0.426-7.012
				c0.151-2.504,2.273-4.392,4.813-4.262c2.507,0.151,4.416,2.306,4.262,4.813L61.8,248.31
				C61.655,250.723,59.651,252.581,57.265,252.581z"/>
		</g>
		<g>
			<path fill="#161616" d="M152.013,149.472c-19.444,0-36.01-3.697-46.435-6.778c-1.211-0.358-2.217-1.202-2.779-2.329
				c-0.565-1.128-0.633-2.442-0.192-3.623c1.465-3.919,2.383-7.865,2.729-11.721c0.121-1.341,0.829-2.56,1.936-3.33
				s2.495-1.009,3.798-0.648c32.645,8.969,60.38,5.124,77.896,0.314c1.296-0.358,2.682-0.118,3.786,0.639
				c1.104,0.764,1.814,1.974,1.945,3.309c0.37,3.857,1.317,7.802,2.812,11.727c0.444,1.166,0.391,2.463-0.148,3.587
				c-0.542,1.125-1.518,1.977-2.705,2.359C179.798,147.762,165.238,149.472,152.013,149.472z M112.655,135.229
				c16.727,4.384,44.94,8.797,74.812,0.417c-0.409-1.418-0.758-2.839-1.042-4.256c-17.703,4.203-43.197,6.843-72.788-0.296
				C113.368,132.471,113.039,133.85,112.655,135.229z"/>
		</g>
	</g>
</g>
</svg>
