<?xml version="1.0" encoding="utf-8"?>
<!-- Generator: Adobe Illustrator 24.3.0, SVG Export Plug-In . SVG Version: 6.00 Build 0)  -->
<svg version="1.1" id="Layer_1" xmlns="http://www.w3.org/2000/svg" xmlns:xlink="http://www.w3.org/1999/xlink" x="0px" y="0px"
	 viewBox="0 0 300 300" enable-background="new 0 0 300 300" xml:space="preserve">
<g>
	<g>
		<g>
			
				<rect x="87.594" y="191.785" transform="matrix(0.9109 -0.4125 0.4125 0.9109 -82.8409 60.0017)" fill="#FE6F80" width="19.902" height="60.155"/>
		</g>
		<g>
			
				<rect x="88.117" y="194.206" transform="matrix(0.9109 -0.4126 0.4126 0.9109 -84.3217 58.0177)" fill="#FFA1AA" width="8.163" height="60.155"/>
		</g>
		<g>
			
				<rect x="75.352" y="192.945" transform="matrix(0.911 -0.4124 0.4124 0.911 -86.8558 54.1914)" fill="#FFDA88" width="13.528" height="70.736"/>
		</g>
		<g>
			
				<rect x="75.655" y="194.339" transform="matrix(0.9109 -0.4126 0.4126 0.9109 -87.732 53.071)" fill="#FFE2A9" width="6.765" height="70.736"/>
		</g>
		<g>
			<path fill="#F4F4F4" d="M97.266,197.123l24.255-10.987l38.557,7.72c0,0,8.645,2.498,5.048,11.153
				c-3.592,8.655-27.146,3.143-34.264,1.764l29.142,12.716l8.081-3.653c0,0,20.856-12.961,29.744-20.773
				c8.899-7.802,16.736-10.227,25.525-7.163l-36.261,39.793l-24.253,10.982l-47.486-1.61L97.266,197.123z"/>
		</g>
		<g>
			<path fill="#F9F9F9" d="M160.004,219.488l7.9,3.12l15.14-6.772c0,0,20.855-12.961,29.744-20.773
				c3.496-3.066,6.825-5.269,10.116-6.669l0.45-0.494c-8.79-3.063-16.626-0.639-25.525,7.163
				c-8.889,7.811-29.744,20.773-29.744,20.773L160.004,219.488z"/>
		</g>
		<g>
			<polygon fill="#F9F9F9" points="130.313,237.064 112.225,197.123 131.896,188.214 121.521,186.136 97.266,197.123 
				115.354,237.064 162.84,238.674 163.882,238.201 			"/>
		</g>
		<g>
			<path fill="#FFDA88" d="M260.817,166.573h-2.96c0-55.247-41.547-100.763-95.098-107.08c1.399-2.281,2.248-4.939,2.248-7.81
				c0-8.289-6.717-15.007-15.007-15.007c-8.289,0-15.005,6.718-15.005,15.007c0,2.871,0.848,5.529,2.247,7.81
				c-53.548,6.316-95.098,51.833-95.098,107.08h-2.955c-5.405,0-9.783,4.379-9.783,9.782c0,5.399,4.378,9.78,9.783,9.78h221.629
				c5.4,0,9.778-4.381,9.778-9.78C270.595,170.952,266.217,166.573,260.817,166.573z"/>
		</g>
		<g>
			<path fill="#FFE2A9" d="M43.287,176.356c0-5.403,4.378-9.782,9.783-9.782h2.956c0-55.247,41.55-100.763,95.098-107.08
				c-1.398-2.281-2.247-4.939-2.247-7.81c0-5.77,3.29-10.719,8.064-13.231c-2.084-1.097-4.422-1.776-6.941-1.776
				c-8.289,0-15.005,6.718-15.005,15.007c0,2.871,0.848,5.529,2.247,7.81c-53.548,6.316-95.098,51.833-95.098,107.08h-2.955
				c-5.405,0-9.783,4.379-9.783,9.782c0,5.399,4.378,9.78,9.783,9.78H53.07C47.665,186.136,43.287,181.755,43.287,176.356z"/>
		</g>
		<g>
			<g>
				<path fill="#A880B2" d="M185.265,120.107c0-5.189-4.205-9.393-9.392-9.393c-5.041,0-9.142,3.971-9.373,8.955l-0.033-0.013
					l-0.013,0.006c-0.232-4.98-4.33-8.948-9.37-8.948c-5.187,0-9.393,4.205-9.393,9.393c0,2.308,0.836,4.418,2.217,6.055h-0.003
					l16.573,18.665l16.575-18.665l-0.005-0.003C184.43,124.525,185.265,122.414,185.265,120.107z"/>
			</g>
			<g>
				<g>
					<path fill="#B999C1" d="M155.772,126.162h0.003c-1.381-1.637-2.217-3.747-2.217-6.055c0-4.16,2.721-7.647,6.466-8.881
						c-0.928-0.308-1.906-0.512-2.939-0.512c-5.187,0-9.393,4.205-9.393,9.393c0,2.308,0.836,4.418,2.217,6.055h-0.003
						l16.573,18.665l2.933-3.303L155.772,126.162z"/>
				</g>
			</g>
			<g>
				<path fill="#FE6F80" d="M149.905,126.162h0.003c-1.381-1.637-2.217-3.747-2.217-6.055c0-5.189,4.206-9.393,9.393-9.393
					c5.039,0,9.137,3.968,9.37,8.948l0.013-0.006l0.033,0.013c0.218-4.693,3.88-8.446,8.514-8.872
					c1.247-2.259,1.986-4.838,1.986-7.601c0-8.736-7.082-15.819-15.821-15.819c-8.486,0-15.393,6.688-15.782,15.082l-0.053-0.022
					l-0.022,0.01c-0.394-8.388-7.295-15.071-15.781-15.071c-8.736,0-15.818,7.083-15.818,15.819c0,3.886,1.405,7.441,3.731,10.198
					h-0.004l27.912,31.433l10.558-11.89L149.905,126.162z"/>
			</g>
			<g>
				<path fill="#FFA1AA" d="M126.164,113.394h0.004c-2.326-2.757-3.731-6.312-3.731-10.198c0-7.215,4.86-13.234,11.464-15.136
					c-1.393-0.403-2.837-0.684-4.36-0.684c-8.736,0-15.818,7.083-15.818,15.819c0,3.886,1.405,7.441,3.731,10.198h-0.004
					l27.912,31.433l4.357-4.906L126.164,113.394z"/>
			</g>
		</g>
		<g>
			<path fill="#FFDA88" d="M75.484,55.708c-1.924,1.924-5.042,1.924-6.965,0l-5.113-5.112c-1.924-1.924-1.924-5.042,0-6.966l0,0
				c1.922-1.924,5.041-1.924,6.965,0l5.113,5.113C77.408,50.667,77.408,53.785,75.484,55.708L75.484,55.708z"/>
		</g>
		<g>
			<path fill="#FFDA88" d="M53.475,83.009c0,2.721-2.205,4.927-4.925,4.925l-7.229,0.002c-2.722,0-4.927-2.205-4.927-4.927l0,0
				c0-2.719,2.205-4.924,4.925-4.924h7.231C51.272,78.085,53.477,80.29,53.475,83.009L53.475,83.009z"/>
		</g>
		<g>
			<path fill="#FFDA88" d="M223.504,55.708c1.924,1.924,5.042,1.924,6.965,0l5.113-5.112c1.924-1.924,1.924-5.042,0-6.966l0,0
				c-1.923-1.924-5.041-1.924-6.965,0l-5.113,5.113C221.58,50.667,221.58,53.785,223.504,55.708L223.504,55.708z"/>
		</g>
		<g>
			<path fill="#FFDA88" d="M245.512,83.009c0,2.721,2.205,4.927,4.925,4.925l7.23,0.002c2.722,0,4.927-2.205,4.927-4.927l0,0
				c0-2.719-2.205-4.924-4.925-4.924h-7.231C247.716,78.085,245.511,80.29,245.512,83.009L245.512,83.009z"/>
		</g>
	</g>
	<g>
		<g>
			<path fill="#161616" d="M260.817,190.682H39.188c-7.902,0-14.329-6.426-14.329-14.326c0-7.902,6.427-14.329,14.329-14.329
				h221.629c7.899,0,14.325,6.428,14.325,14.329C275.141,184.256,268.715,190.682,260.817,190.682z M39.188,171.12
				c-2.887,0-5.236,2.349-5.236,5.236c0,2.886,2.349,5.233,5.236,5.233h221.629c2.884,0,5.232-2.347,5.232-5.233
				c0-2.887-2.347-5.236-5.232-5.236H39.188z"/>
		</g>
		<g>
			<path fill="#161616" d="M100.887,257.914c-0.542,0-1.085-0.098-1.603-0.292c-1.128-0.425-2.041-1.282-2.538-2.38l-24.814-54.8
				c-0.499-1.098-0.539-2.349-0.114-3.478c0.425-1.128,1.282-2.042,2.38-2.54l18.131-8.208c2.287-1.036,4.982-0.021,6.016,2.267
				l24.813,54.797c1.036,2.286,0.022,4.98-2.266,6.016l-18.13,8.211C102.168,257.778,101.528,257.914,100.887,257.914z
				 M82.09,200.835l21.063,46.515l9.846-4.459l-21.061-46.515L82.09,200.835z"/>
		</g>
		<g>
			<path fill="#161616" d="M90.547,267.869c-1.73,0-3.385-0.993-4.144-2.673l-29.179-64.438c-0.499-1.098-0.539-2.349-0.114-3.478
				c0.425-1.128,1.282-2.041,2.38-2.54l12.324-5.579c2.288-1.035,4.983-0.021,6.016,2.267l29.179,64.438
				c0.499,1.098,0.539,2.349,0.114,3.478c-0.425,1.128-1.282,2.041-2.38,2.54l-12.324,5.579
				C91.811,267.739,91.173,267.869,90.547,267.869z M67.383,201.15l25.427,56.156l4.04-1.829l-25.427-56.156L67.383,201.15z"/>
		</g>
		<g>
			<path fill="#161616" d="M162.84,243.221c-0.052,0-0.102-0.002-0.154-0.003l-47.486-1.61c-1.729-0.058-3.274-1.092-3.987-2.668
				l-18.088-39.941c-1.036-2.286-0.022-4.98,2.264-6.016l24.255-10.987c0.866-0.395,1.832-0.506,2.769-0.317l38.557,7.719
				c0.124,0.025,0.247,0.055,0.37,0.09c0.583,0.169,5.76,1.786,8.11,6.679c1.045,2.176,1.872,5.778-0.126,10.586
				c-1.763,4.245-5.793,6.328-10.752,7.15l1.398,0.611l5.963-2.697c2.372-1.484,20.903-13.148,28.893-20.17
				c10.305-9.032,19.84-11.59,30.023-8.041c1.443,0.503,2.535,1.696,2.911,3.176c0.375,1.481-0.018,3.05-1.046,4.179l-15.332,16.824
				c-1.696,1.856-4.567,1.989-6.423,0.299c-1.856-1.692-1.989-4.567-0.299-6.423l9.454-10.373
				c-4.173,0.561-8.384,2.892-13.289,7.193c-9.062,7.964-29.476,20.678-30.341,21.215c-0.17,0.105-0.346,0.2-0.528,0.281
				l-8.08,3.653c-1.171,0.53-2.512,0.539-3.691,0.025l-29.142-12.716c-2.124-0.928-3.21-3.305-2.523-5.517
				c0.688-2.214,2.941-3.559,5.207-3.114l1.872,0.374c24.214,4.896,27.012,1.342,27.329,0.582c0.562-1.353,0.676-2.408,0.339-3.136
				c-0.456-0.984-1.769-1.647-2.364-1.872l-36.839-7.376l-18.781,8.508l15.047,33.227l43.603,1.479l22.432-10.156l6.713-7.367
				c1.692-1.857,4.569-1.986,6.423-0.299c1.856,1.692,1.989,4.567,0.299,6.423l-7.345,8.06c-0.417,0.457-0.922,0.824-1.486,1.08
				l-24.254,10.981C164.126,243.083,163.487,243.221,162.84,243.221z"/>
		</g>
		<g>
			<path fill="#161616" d="M257.857,171.12H42.143c-2.512,0-4.546-2.035-4.546-4.547c0-28.096,10.44-54.995,29.395-75.743
				c1.693-1.851,4.573-1.982,6.423-0.29c1.854,1.693,1.983,4.569,0.29,6.423c-16.396,17.946-25.859,40.899-26.916,65.064h206.422
				c-2.192-50.332-40.57-92.071-90.985-98.018c-1.539-0.182-2.882-1.137-3.558-2.531c-0.676-1.396-0.596-3.04,0.215-4.361
				c1.046-1.706,1.578-3.534,1.578-5.433c0-5.767-4.693-10.46-10.46-10.46c-5.767,0-10.459,4.693-10.459,10.46
				c0,1.9,0.53,3.728,1.576,5.433c0.811,1.322,0.891,2.966,0.215,4.361c-0.676,1.394-2.019,2.349-3.558,2.531
				c-17.991,2.122-35.196,9.026-49.759,19.968c-2.007,1.504-4.854,1.105-6.365-0.904c-1.508-2.007-1.104-4.857,0.904-6.365
				c14.273-10.724,30.882-17.884,48.352-20.888c-0.303-1.359-0.457-2.744-0.457-4.135c0-10.782,8.77-19.553,19.552-19.553
				c10.782,0,19.553,8.772,19.553,19.553c0,1.39-0.154,2.773-0.457,4.132c53.591,9.152,93.307,55.771,93.307,110.757
				C262.403,169.085,260.368,171.12,257.857,171.12z"/>
		</g>
		<g>
			<path fill="#161616" d="M166.478,149.373c-1.299,0-2.537-0.556-3.4-1.527l-16.573-18.665c-2.195-2.606-3.361-5.795-3.361-9.074
				c0-7.687,6.253-13.94,13.94-13.94c3.616,0,6.914,1.373,9.393,3.636c2.479-2.263,5.779-3.636,9.395-3.636
				c7.685,0,13.938,6.253,13.938,13.94c0,3.286-1.168,6.476-3.29,8.986l-16.644,18.751
				C169.015,148.817,167.777,149.373,166.478,149.373z M157.085,115.26c-2.673,0-4.847,2.174-4.847,4.847
				c0,1.459,0.623,2.504,1.145,3.123l13.095,14.749l13.176-14.837c0.443-0.528,1.064-1.575,1.064-3.035
				c0-2.673-2.174-4.847-4.845-4.847c-2.589,0-4.711,2.029-4.831,4.619c-0.068,1.477-0.851,2.827-2.096,3.621
				c-1.111,0.712-2.47,0.898-3.724,0.531c-0.4-0.113-0.787-0.281-1.15-0.505c-1.277-0.789-2.09-2.153-2.161-3.654
				C161.792,117.286,159.672,115.26,157.085,115.26z"/>
		</g>
		<g>
			<path fill="#161616" d="M145.362,149.373c-1.299,0-2.537-0.556-3.399-1.527l-27.912-31.433c-3.17-3.762-4.874-8.424-4.874-13.217
				c0-11.23,9.136-20.366,20.364-20.366c6.379,0,12.085,2.927,15.819,7.54c3.734-4.613,9.439-7.54,15.819-7.54
				c11.23,0,20.367,9.136,20.367,20.366c0,3.388-0.882,6.777-2.553,9.799c-0.728,1.319-2.063,2.192-3.564,2.329
				c-2.392,0.22-4.279,2.178-4.388,4.555c-0.07,1.477-0.851,2.827-2.096,3.621c-1.111,0.712-2.475,0.894-3.722,0.533
				c-0.401-0.114-0.789-0.283-1.151-0.506c-1.277-0.789-2.09-2.153-2.161-3.654c-0.12-2.587-2.241-4.613-4.828-4.613
				c-2.673,0-4.847,2.174-4.847,4.847c0,1.459,0.623,2.504,1.145,3.123v0.001l5.936,6.688c1.529,1.721,1.529,4.314,0,6.037
				l-10.558,11.89C147.898,148.817,146.661,149.373,145.362,149.373z M129.541,91.923c-6.214,0-11.271,5.057-11.271,11.273
				c0,2.654,0.944,5.235,2.66,7.267l24.433,27.517l4.478-5.042l-3.334-3.758c-0.027-0.03-0.053-0.059-0.078-0.09
				c-2.116-2.514-3.283-5.704-3.283-8.982c0-7.687,6.253-13.94,13.94-13.94c3.633,0,6.947,1.387,9.43,3.67
				c1.509-1.371,3.321-2.418,5.323-3.028c0.409-1.168,0.616-2.377,0.616-3.614c0-6.216-5.057-11.273-11.274-11.273
				c-6.024,0-10.961,4.721-11.24,10.746c-0.07,1.482-0.855,2.837-2.109,3.63c-1.111,0.707-2.47,0.888-3.722,0.519
				c-0.392-0.109-0.771-0.271-1.126-0.485c-1.298-0.784-2.131-2.159-2.202-3.673C140.497,96.639,135.561,91.923,129.541,91.923z"/>
		</g>
		<g>
			<path fill="#161616" d="M75.484,55.708c-1.924,1.924-5.042,1.924-6.965,0l-5.113-5.112c-1.924-1.924-1.924-5.042,0-6.966l0,0
				c1.922-1.924,5.041-1.924,6.965,0l5.113,5.113C77.408,50.667,77.408,53.785,75.484,55.708L75.484,55.708z"/>
		</g>
		<g>
			<path fill="#161616" d="M53.475,83.009c0,2.721-2.205,4.927-4.925,4.925l-7.229,0.002c-2.722,0-4.927-2.205-4.927-4.927l0,0
				c0-2.719,2.205-4.924,4.925-4.924h7.231C51.272,78.085,53.477,80.29,53.475,83.009L53.475,83.009z"/>
		</g>
		<g>
			<path fill="#161616" d="M223.504,55.708c1.924,1.924,5.042,1.924,6.965,0l5.113-5.112c1.924-1.924,1.924-5.042,0-6.966l0,0
				c-1.923-1.924-5.041-1.924-6.965,0l-5.113,5.113C221.58,50.667,221.58,53.785,223.504,55.708L223.504,55.708z"/>
		</g>
		<g>
			<path fill="#161616" d="M245.512,83.009c0,2.721,2.205,4.927,4.925,4.925l7.23,0.002c2.722,0,4.927-2.205,4.927-4.927l0,0
				c0-2.719-2.205-4.924-4.925-4.924h-7.231C247.716,78.085,245.511,80.29,245.512,83.009L245.512,83.009z"/>
		</g>
	</g>
</g>
</svg>
