<?xml version="1.0" encoding="utf-8"?>
<!-- Generator: Adobe Illustrator 24.3.0, SVG Export Plug-In . SVG Version: 6.00 Build 0)  -->
<svg version="1.1" id="Layer_1" xmlns="http://www.w3.org/2000/svg" xmlns:xlink="http://www.w3.org/1999/xlink" x="0px" y="0px"
	 viewBox="0 0 300 300" enable-background="new 0 0 300 300" xml:space="preserve">
<g>
	<g>
		<g>
			<rect x="28.762" y="55.661" fill="#FE6F80" width="242.479" height="188.677"/>
		</g>
		<g>
			<rect x="28.762" y="55.661" fill="#FFA1AA" width="13.438" height="188.677"/>
		</g>
		<g>
			<rect x="28.762" y="103.02" fill="#F4F4F4" width="26.876" height="93.96"/>
		</g>
		<g>
			<rect x="244.363" y="103.02" fill="#F4F4F4" width="26.878" height="93.96"/>
		</g>
		<g>
			<rect x="74.605" y="103.02" fill="#F4F4F4" width="150.79" height="93.96"/>
		</g>
		<g>
			<rect x="28.762" y="103.02" fill="#F9F9F9" width="13.438" height="93.96"/>
		</g>
		<g>
			<rect x="49.713" y="214.241" fill="#F4F4F4" width="14.77" height="14.77"/>
		</g>
		<g>
			<rect x="85.435" y="214.241" fill="#F4F4F4" width="14.77" height="14.77"/>
		</g>
		<g>
			<rect x="121.157" y="214.241" fill="#F4F4F4" width="14.77" height="14.77"/>
		</g>
		<g>
			<rect x="156.879" y="214.241" fill="#F4F4F4" width="14.77" height="14.77"/>
		</g>
		<g>
			<rect x="192.601" y="214.241" fill="#F4F4F4" width="14.77" height="14.77"/>
		</g>
		<g>
			<rect x="228.323" y="214.241" fill="#F4F4F4" width="14.77" height="14.77"/>
		</g>
		<g>
			<rect x="49.713" y="71.406" fill="#F4F4F4" width="14.77" height="14.77"/>
		</g>
		<g>
			<rect x="85.435" y="71.406" fill="#F4F4F4" width="14.77" height="14.77"/>
		</g>
		<g>
			<rect x="121.157" y="71.406" fill="#F4F4F4" width="14.77" height="14.77"/>
		</g>
		<g>
			<rect x="156.879" y="71.406" fill="#F4F4F4" width="14.77" height="14.77"/>
		</g>
		<g>
			<rect x="192.601" y="71.406" fill="#F4F4F4" width="14.77" height="14.77"/>
		</g>
		<g>
			<rect x="228.323" y="71.406" fill="#F4F4F4" width="14.77" height="14.77"/>
		</g>
		<g>
			<path fill="#A880B2" d="M184.066,154.005c0-5.189-4.204-9.393-9.392-9.393c-5.041,0-9.142,3.97-9.373,8.955l-0.032-0.013
				l-0.013,0.006c-0.232-4.98-4.33-8.948-9.37-8.948c-5.188,0-9.393,4.204-9.393,9.393c0,2.307,0.836,4.418,2.217,6.055h-0.003
				l16.573,18.665l16.575-18.665l-0.004-0.003C183.231,158.422,184.066,156.312,184.066,154.005z"/>
		</g>
		<g>
			<path fill="#FE6F80" d="M148.706,160.059h0.003c-1.381-1.637-2.217-3.747-2.217-6.055c0-5.189,4.206-9.393,9.393-9.393
				c5.039,0,9.137,3.968,9.37,8.948l0.013-0.006l0.032,0.013c0.218-4.693,3.881-8.446,8.514-8.873
				c1.248-2.258,1.986-4.838,1.986-7.601c0-8.736-7.082-15.819-15.821-15.819c-8.486,0-15.393,6.688-15.782,15.082l-0.053-0.022
				l-0.022,0.01c-0.394-8.388-7.295-15.07-15.781-15.07c-8.736,0-15.818,7.083-15.818,15.819c0,3.886,1.405,7.441,3.731,10.199
				h-0.005l27.912,31.433l10.558-11.89L148.706,160.059z"/>
		</g>
		<g>
			<g>
				<path fill="#B999C1" d="M154.573,160.059h0.003c-1.381-1.637-2.217-3.747-2.217-6.055c0-4.16,2.721-7.647,6.466-8.881
					c-0.928-0.308-1.906-0.512-2.939-0.512c-5.188,0-9.393,4.204-9.393,9.393c0,2.307,0.836,4.418,2.217,6.055h-0.003l16.573,18.665
					l2.933-3.303L154.573,160.059z"/>
			</g>
		</g>
		<g>
			<path fill="#FFA1AA" d="M124.965,147.292h0.005c-2.327-2.757-3.731-6.312-3.731-10.199c0-7.215,4.86-13.234,11.464-15.135
				c-1.392-0.403-2.837-0.684-4.36-0.684c-8.736,0-15.818,7.083-15.818,15.819c0,3.886,1.405,7.441,3.731,10.199h-0.005
				l27.912,31.433l4.357-4.906L124.965,147.292z"/>
		</g>
	</g>
	<g>
		<g>
			<path fill="#161616" d="M271.239,248.885h-21.757c-2.512,0-4.547-2.035-4.547-4.547c0-2.511,2.035-4.546,4.547-4.546h17.21
				V60.208H33.308v179.585h196.03c2.511,0,4.546,2.035,4.546,4.546c0,2.512-2.035,4.547-4.546,4.547H28.762
				c-2.511,0-4.546-2.035-4.546-4.547V55.661c0-2.511,2.035-4.546,4.546-4.546h242.477c2.512,0,4.546,2.035,4.546,4.546v188.677
				C275.785,246.85,273.75,248.885,271.239,248.885z"/>
		</g>
		<g>
			<path fill="#161616" d="M55.638,201.526H28.762c-2.511,0-4.546-2.035-4.546-4.546v-93.96c0-2.511,2.035-4.546,4.546-4.546h26.876
				c2.511,0,4.546,2.035,4.546,4.546v93.96C60.184,199.491,58.149,201.526,55.638,201.526z M33.308,192.434h17.783v-84.867H33.308
				V192.434z"/>
		</g>
		<g>
			<path fill="#161616" d="M271.239,201.526h-26.876c-2.512,0-4.547-2.035-4.547-4.546v-93.96c0-2.511,2.035-4.546,4.547-4.546
				h26.876c2.512,0,4.546,2.035,4.546,4.546v93.96C275.785,199.491,273.75,201.526,271.239,201.526z M248.909,192.434h17.783
				v-84.867h-17.783V192.434z"/>
		</g>
		<g>
			<path fill="#161616" d="M225.395,201.526H74.605c-2.512,0-4.547-2.035-4.547-4.546v-59.622c0-2.512,2.035-4.546,4.547-4.546
				c2.511,0,4.546,2.035,4.546,4.546v55.075h141.698v-84.867H79.151v9.648c0,2.512-2.035,4.547-4.546,4.547
				c-2.512,0-4.547-2.035-4.547-4.547V103.02c0-2.511,2.035-4.546,4.547-4.546h150.79c2.512,0,4.546,2.035,4.546,4.546v93.96
				C229.942,199.491,227.907,201.526,225.395,201.526z"/>
		</g>
		<g>
			<path fill="#161616" d="M64.483,233.557h-14.77c-2.512,0-4.547-2.035-4.547-4.547v-14.77c0-2.512,2.035-4.546,4.547-4.546h14.77
				c2.512,0,4.547,2.035,4.547,4.546v14.77C69.03,231.522,66.995,233.557,64.483,233.557z M54.26,224.464h5.677v-5.677H54.26
				V224.464z"/>
		</g>
		<g>
			<path fill="#161616" d="M100.205,233.557h-14.77c-2.512,0-4.547-2.035-4.547-4.547v-14.77c0-2.512,2.035-4.546,4.547-4.546h14.77
				c2.512,0,4.546,2.035,4.546,4.546v14.77C104.752,231.522,102.717,233.557,100.205,233.557z M89.982,224.464h5.677v-5.677h-5.677
				V224.464z"/>
		</g>
		<g>
			<path fill="#161616" d="M135.927,233.557h-14.77c-2.511,0-4.546-2.035-4.546-4.547v-14.77c0-2.512,2.035-4.546,4.546-4.546h14.77
				c2.511,0,4.546,2.035,4.546,4.546v14.77C140.473,231.522,138.439,233.557,135.927,233.557z M125.703,224.464h5.677v-5.677h-5.677
				V224.464z"/>
		</g>
		<g>
			<path fill="#161616" d="M171.649,233.557h-14.77c-2.512,0-4.547-2.035-4.547-4.547v-14.77c0-2.512,2.035-4.546,4.547-4.546h14.77
				c2.512,0,4.547,2.035,4.547,4.546v14.77C176.195,231.522,174.16,233.557,171.649,233.557z M161.425,224.464h5.677v-5.677h-5.677
				V224.464z"/>
		</g>
		<g>
			<path fill="#161616" d="M207.371,233.557h-14.77c-2.512,0-4.546-2.035-4.546-4.547v-14.77c0-2.512,2.035-4.546,4.546-4.546h14.77
				c2.512,0,4.546,2.035,4.546,4.546v14.77C211.917,231.522,209.882,233.557,207.371,233.557z M197.147,224.464h5.677v-5.677h-5.677
				V224.464z"/>
		</g>
		<g>
			<path fill="#161616" d="M243.093,233.557h-14.77c-2.512,0-4.546-2.035-4.546-4.547v-14.77c0-2.512,2.035-4.546,4.546-4.546h14.77
				c2.512,0,4.546,2.035,4.546,4.546v14.77C247.639,231.522,245.604,233.557,243.093,233.557z M232.869,224.464h5.677v-5.677h-5.677
				V224.464z"/>
		</g>
		<g>
			<path fill="#161616" d="M64.483,90.723h-14.77c-2.512,0-4.547-2.035-4.547-4.546v-14.77c0-2.512,2.035-4.546,4.547-4.546h14.77
				c2.512,0,4.547,2.035,4.547,4.546v14.77C69.03,88.688,66.995,90.723,64.483,90.723z M54.26,81.63h5.677v-5.677H54.26V81.63z"/>
		</g>
		<g>
			<path fill="#161616" d="M100.205,90.723h-14.77c-2.512,0-4.547-2.035-4.547-4.546v-14.77c0-2.512,2.035-4.546,4.547-4.546h14.77
				c2.512,0,4.546,2.035,4.546,4.546v14.77C104.752,88.688,102.717,90.723,100.205,90.723z M89.982,81.63h5.677v-5.677h-5.677V81.63
				z"/>
		</g>
		<g>
			<path fill="#161616" d="M135.927,90.723h-14.77c-2.511,0-4.546-2.035-4.546-4.546v-14.77c0-2.512,2.035-4.546,4.546-4.546h14.77
				c2.511,0,4.546,2.035,4.546,4.546v14.77C140.473,88.688,138.439,90.723,135.927,90.723z M125.703,81.63h5.677v-5.677h-5.677
				V81.63z"/>
		</g>
		<g>
			<path fill="#161616" d="M171.649,90.723h-14.77c-2.512,0-4.547-2.035-4.547-4.546v-14.77c0-2.512,2.035-4.546,4.547-4.546h14.77
				c2.512,0,4.547,2.035,4.547,4.546v14.77C176.195,88.688,174.16,90.723,171.649,90.723z M161.425,81.63h5.677v-5.677h-5.677V81.63
				z"/>
		</g>
		<g>
			<path fill="#161616" d="M207.371,90.723h-14.77c-2.512,0-4.546-2.035-4.546-4.546v-14.77c0-2.512,2.035-4.546,4.546-4.546h14.77
				c2.512,0,4.546,2.035,4.546,4.546v14.77C211.917,88.688,209.882,90.723,207.371,90.723z M197.147,81.63h5.677v-5.677h-5.677
				V81.63z"/>
		</g>
		<g>
			<path fill="#161616" d="M243.093,90.723h-14.77c-2.512,0-4.546-2.035-4.546-4.546v-14.77c0-2.512,2.035-4.546,4.546-4.546h14.77
				c2.512,0,4.546,2.035,4.546,4.546v14.77C247.639,88.688,245.604,90.723,243.093,90.723z M232.869,81.63h5.677v-5.677h-5.677
				V81.63z"/>
		</g>
		<g>
			<path fill="#161616" d="M165.279,183.574c-1.299,0-2.537-0.557-3.4-1.527l-16.573-18.665c-2.195-2.606-3.361-5.796-3.361-9.074
				c0-7.687,6.253-13.94,13.94-13.94c3.616,0,6.914,1.373,9.393,3.636c2.479-2.263,5.779-3.636,9.395-3.636
				c7.685,0,13.938,6.253,13.938,13.94c0,3.286-1.168,6.476-3.29,8.986l-16.644,18.751
				C167.816,183.018,166.579,183.574,165.279,183.574z M155.886,149.461c-2.673,0-4.847,2.174-4.847,4.847
				c0,1.459,0.623,2.504,1.146,3.123l13.095,14.749l13.176-14.837c0.442-0.528,1.064-1.575,1.064-3.035
				c0-2.673-2.174-4.847-4.845-4.847c-2.589,0-4.711,2.029-4.831,4.619c-0.068,1.477-0.851,2.827-2.096,3.622
				c-1.113,0.71-2.471,0.898-3.723,0.531c-0.4-0.113-0.787-0.281-1.15-0.505c-1.277-0.789-2.09-2.153-2.161-3.654
				C160.594,151.487,158.473,149.461,155.886,149.461z"/>
		</g>
		<g>
			<path fill="#161616" d="M144.163,183.574c-1.299,0-2.537-0.557-3.4-1.527l-27.912-31.433c-3.17-3.762-4.873-8.424-4.873-13.217
				c0-11.23,9.136-20.366,20.364-20.366c6.379,0,12.085,2.927,15.819,7.54c3.734-4.613,9.439-7.54,15.819-7.54
				c11.23,0,20.367,9.136,20.367,20.366c0,3.388-0.882,6.777-2.553,9.799c-0.728,1.319-2.063,2.192-3.564,2.329
				c-2.392,0.221-4.279,2.178-4.388,4.555c-0.07,1.477-0.851,2.827-2.096,3.622c-1.113,0.71-2.471,0.898-3.722,0.533
				c-0.401-0.114-0.789-0.283-1.151-0.506c-1.277-0.789-2.09-2.153-2.161-3.654c-0.12-2.587-2.241-4.613-4.828-4.613
				c-2.673,0-4.847,2.174-4.847,4.847c0,1.459,0.623,2.504,1.146,3.123v0.001l5.936,6.688c1.529,1.721,1.529,4.314,0,6.037
				l-10.558,11.89C146.7,183.018,145.463,183.574,144.163,183.574z M128.342,126.124c-6.214,0-11.271,5.057-11.271,11.273
				c0,2.654,0.944,5.235,2.659,7.267l24.433,27.517l4.478-5.042l-3.334-3.758c-0.027-0.03-0.053-0.059-0.078-0.09
				c-2.116-2.514-3.283-5.704-3.283-8.982c0-7.687,6.253-13.94,13.94-13.94c3.633,0,6.947,1.387,9.43,3.67
				c1.509-1.371,3.321-2.418,5.323-3.028c0.408-1.168,0.616-2.377,0.616-3.614c0-6.216-5.057-11.273-11.274-11.273
				c-6.023,0-10.961,4.721-11.24,10.746c-0.07,1.482-0.855,2.837-2.109,3.63c-1.113,0.709-2.473,0.891-3.722,0.519
				c-0.392-0.109-0.771-0.271-1.126-0.485c-1.298-0.784-2.131-2.159-2.202-3.673C139.298,130.84,134.363,126.124,128.342,126.124z"
				/>
		</g>
	</g>
</g>
</svg>
