<?xml version="1.0" encoding="utf-8"?>
<!-- Generator: Adobe Illustrator 24.3.0, SVG Export Plug-In . SVG Version: 6.00 Build 0)  -->
<svg version="1.1" id="Layer_1" xmlns="http://www.w3.org/2000/svg" xmlns:xlink="http://www.w3.org/1999/xlink" x="0px" y="0px"
	 viewBox="0 0 300 300" enable-background="new 0 0 300 300" xml:space="preserve">
<g>
	<g>
		<g>
			<path fill="#F4F4F4" d="M125.977,67.009c-29.502,2.877-52.562,27.736-52.562,57.998v100.01c-5.51,3.28-9.213,9.277-9.213,16.155
				v30.067h37.612v-30.067c0-6.636-3.444-12.456-8.632-15.8v-94.634c0-23.917,19.387-43.304,43.305-43.304h7.625L125.977,67.009z"/>
		</g>
		<g>
			<path fill="#F9F9F9" d="M81.47,225.017v-100.01c0-27.811,19.494-51.007,45.547-56.826l-1.042-1.172
				c-29.502,2.877-52.562,27.736-52.562,57.998v100.01c-5.511,3.28-9.211,9.277-9.211,16.155v30.067h8.057v-30.067
				C72.259,234.294,75.959,228.297,81.47,225.017z"/>
		</g>
		<g>
			<path fill="#F4F4F4" d="M227.225,225.408V125.007c0-30.475-23.395-55.447-53.194-58.028l-18.165,20.455h8.288
				c23.918,0,43.305,19.387,43.305,43.304v94.244c-5.542,3.274-9.272,9.288-9.272,16.191v30.067h37.612v-30.067
				C235.798,234.56,232.381,228.758,227.225,225.408z"/>
		</g>
		<g>
			<rect x="64.202" y="245.979" fill="#FE6F80" width="37.612" height="11.366"/>
		</g>
		<g>
			<rect x="198.186" y="245.979" fill="#FE6F80" width="37.612" height="11.366"/>
		</g>
		<g>
			<path fill="#9AE8CE" d="M144.111,87.434h-7.625c-23.918,0-43.305,19.387-43.305,43.304v94.634c3.037,1.96,5.449,4.783,6.95,8.105
				h0.002c12.871-46.098,1.681-68.83,1.681-68.83C149.926,164.647,144.111,87.434,144.111,87.434z"/>
		</g>
		<g>
			<g>
				<path fill="#FFE2A9" d="M93.181,224.869v0.503c0.294,0.189,0.555,0.426,0.837,0.628
					C93.766,225.603,93.462,225.248,93.181,224.869z"/>
			</g>
			<g>
				<path fill="#AEF4DB" d="M144.111,87.434h-4.603c0.305,17.162-1.888,72.163-42.494,72.163c0,0,10.97,22.377-1.391,67.688
					c1.89,1.729,3.439,3.824,4.508,6.192h0.002c12.871-46.098,1.681-68.83,1.681-68.83
					C149.926,164.647,144.111,87.434,144.111,87.434z"/>
			</g>
		</g>
		<g>
			<path fill="#9AE8CE" d="M199.793,233.477h0.001c0.031-0.071,0.103-0.101,0.146-0.16c1.612-3.481,4.233-6.393,7.517-8.335v-94.244
				c0-23.917-19.388-43.304-43.305-43.304h-8.288l0.056-0.065l-0.107,0.065c0,0-5.815,77.213,42.297,77.213
				C198.112,164.647,186.922,187.379,199.793,233.477z"/>
		</g>
		<g>
			<path fill="#AEF4DB" d="M203.668,162.373c-43.213,0-42.922-62.253-42.414-74.939h-5.389l0.056-0.065l-0.107,0.065
				c0,0-5.815,77.213,42.297,77.213c0,0-11.19,22.732,1.681,68.83h0.001c0.031-0.071,0.103-0.101,0.146-0.16
				c1.06-2.285,2.588-4.292,4.421-5.973C193.181,183.88,203.668,162.373,203.668,162.373z"/>
		</g>
		<g>
			<path fill="#FE6F80" d="M84.669,65.277c1.924,1.924,5.042,1.924,6.965,0l5.113-5.112c1.924-1.924,1.924-5.044,0-6.968l0,0
				c-1.922-1.921-5.041-1.921-6.965,0l-5.113,5.115C82.745,60.236,82.745,63.356,84.669,65.277L84.669,65.277z"/>
		</g>
		<g>
			<path fill="#FE6F80" d="M84.669,30.202c-1.924,1.924-1.924,5.041,0,6.965l5.112,5.115c1.924,1.924,5.042,1.924,6.966,0l0,0
				c1.923-1.924,1.923-5.044,0-6.968l-5.113-5.112C89.708,28.278,86.59,28.278,84.669,30.202L84.669,30.202z"/>
		</g>
		<g>
			<path fill="#FE6F80" d="M215.331,65.277c-1.924,1.924-5.042,1.924-6.964,0l-5.113-5.112c-1.924-1.924-1.924-5.044,0-6.968l0,0
				c1.923-1.921,5.041-1.921,6.965,0l5.113,5.115C217.255,60.236,217.255,63.356,215.331,65.277L215.331,65.277z"/>
		</g>
		<g>
			<path fill="#FE6F80" d="M215.331,30.202c1.924,1.924,1.924,5.041,0,6.965l-5.112,5.115c-1.924,1.924-5.042,1.924-6.966,0l0,0
				c-1.923-1.924-1.923-5.044,0-6.968l5.113-5.112C210.292,28.278,213.411,28.278,215.331,30.202L215.331,30.202z"/>
		</g>
		<g>
			<polygon fill="#F4F4F4" points="154.8,262.395 154.8,204.807 145.588,204.807 145.588,262.395 136.235,262.395 136.235,271.239 
				164.153,271.239 164.153,262.395 			"/>
		</g>
		<g>
			<path fill="#FE6F80" d="M185.944,46.736c0-9.931-8.049-17.976-17.979-17.976c-9.645,0-17.49,7.595-17.934,17.138l-0.062-0.024
				l-0.027,0.006c-0.445-9.531-8.291-17.12-17.931-17.12c-9.929,0-17.978,8.045-17.978,17.976c0,4.413,1.598,8.456,4.24,11.588
				h-0.006l31.722,35.728l31.724-35.728l-0.009-0.006C184.346,55.193,185.944,51.15,185.944,46.736z"/>
		</g>
		<g>
			<path fill="#FFA1AA" d="M128.154,58.325h0.006c-2.642-3.132-4.24-7.175-4.24-11.588c0-8.214,5.517-15.128,13.043-17.274
				c-1.573-0.453-3.232-0.702-4.952-0.702c-9.929,0-17.978,8.045-17.978,17.976c0,4.413,1.598,8.456,4.24,11.588h-0.006
				l31.722,35.728l4.944-5.571L128.154,58.325z"/>
		</g>
		<g>
			<rect x="129.775" y="180.559" fill="#9AE8CE" width="40.838" height="24.248"/>
		</g>
		<g>
			<rect x="64.202" y="245.979" fill="#FFA1AA" width="8.057" height="11.366"/>
		</g>
		<g>
			<rect x="136.235" y="262.395" fill="#F9F9F9" width="5.795" height="8.844"/>
		</g>
		<g>
			<rect x="145.588" y="204.807" fill="#F9F9F9" width="4.606" height="57.588"/>
		</g>
		<g>
			<rect x="129.775" y="180.559" fill="#AEF4DB" width="6.46" height="24.248"/>
		</g>
	</g>
	<g>
		<g>
			<path fill="#161616" d="M101.814,261.892H64.202c-2.511,0-4.546-2.036-4.546-4.547v-11.366c0-2.51,2.035-4.546,4.546-4.546
				h37.612c2.512,0,4.546,2.036,4.546,4.546v11.366C106.36,259.855,104.325,261.892,101.814,261.892z M68.749,252.799h28.519v-2.273
				H68.749V252.799z"/>
		</g>
		<g>
			<path fill="#161616" d="M235.798,261.892h-37.612c-2.512,0-4.546-2.036-4.546-4.547v-11.366c0-2.51,2.035-4.546,4.546-4.546
				h37.612c2.511,0,4.546,2.036,4.546,4.546v11.366C240.344,259.855,238.309,261.892,235.798,261.892z M202.733,252.799h28.519
				v-2.273h-28.519V252.799z"/>
		</g>
		<g>
			<path fill="#161616" d="M149.988,98.599L149.988,98.599c-1.299,0-2.537-0.556-3.399-1.527l-31.722-35.728
				c-3.499-4.154-5.381-9.309-5.381-14.607c0-12.418,10.105-22.522,22.525-22.522c7.336,0,13.867,3.499,17.979,8.955
				c4.11-5.457,10.641-8.955,17.976-8.955c12.42,0,22.525,10.104,22.525,22.522c0,5.192-1.806,10.238-5.093,14.251
				c-0.089,0.123-0.184,0.241-0.286,0.357l-31.725,35.728C152.525,98.042,151.288,98.599,149.988,98.599z M132.011,33.307
				c-7.407,0-13.432,6.025-13.432,13.429c0,3.16,1.125,6.234,3.169,8.656l28.241,31.813l28.118-31.668
				c0.041-0.052,0.083-0.104,0.126-0.154c2.041-2.415,3.166-5.486,3.166-8.647c0-7.404-6.025-13.429-13.432-13.429
				c-7.176,0-13.059,5.624-13.392,12.803c-0.068,1.456-0.83,2.791-2.05,3.59c-1.15,0.753-2.571,0.943-3.872,0.53
				c-0.521-0.155-1.017-0.404-1.458-0.74c-1.066-0.815-1.73-2.057-1.794-3.398C145.066,38.924,139.184,33.307,132.011,33.307z"/>
		</g>
		<g>
			<path fill="#161616" d="M101.814,275.786H64.202c-2.511,0-4.546-2.036-4.546-4.546v-30.067c0-7.281,3.473-14.172,9.213-18.559
				v-17.807c0-2.51,2.035-4.546,4.547-4.546c2.511,0,4.546,2.036,4.546,4.546v20.21c0,1.601-0.844,3.087-2.221,3.907
				c-4.378,2.605-6.991,7.184-6.991,12.248v25.52h28.519v-25.52c0-4.857-2.448-9.336-6.549-11.979
				c-1.299-0.838-2.084-2.276-2.084-3.821v-94.635c0-25.568,20.156-46.518,45.414-47.788l-9.896-11.147
				c-26.49,3.694-46.191,26.177-46.191,53.205v59.654c0,2.51-2.035,4.546-4.546,4.546c-2.512,0-4.547-2.036-4.547-4.546v-59.654
				c0-32.494,24.362-59.373,56.668-62.522c1.459-0.138,2.876,0.419,3.84,1.505l18.134,20.425c1.188,1.338,1.481,3.25,0.747,4.884
				c-0.734,1.631-2.358,2.682-4.147,2.682h-7.625c-21.372,0-38.759,17.387-38.759,38.757v92.32
				c5.448,4.413,8.633,11.017,8.633,18.115v30.067C106.36,273.749,104.325,275.786,101.814,275.786z"/>
		</g>
		<g>
			<path fill="#161616" d="M100.131,238.023c-1.774,0-3.401-1.036-4.141-2.673c-1.151-2.545-2.975-4.674-5.275-6.157
				c-1.296-0.838-2.081-2.276-2.081-3.821v-94.635c0-26.385,21.467-47.85,47.852-47.85h7.625c2.378,0,4.355,1.832,4.533,4.206
				c0.145,1.915,3.294,47.184-17.579,69.686c-6.247,6.737-13.968,10.759-23.013,11.999c2.729,9.919,5.979,31.825-3.54,65.921
				c-0.515,1.841-2.127,3.164-4.033,3.312C100.362,238.02,100.247,238.023,100.131,238.023z M97.728,223.066
				c0.099,0.08,0.195,0.16,0.293,0.243c8.612-37.89-0.189-56.458-0.286-56.656c-0.003-0.003-0.004-0.009-0.007-0.015V223.066z
				 M136.486,91.98c-21.372,0-38.759,17.387-38.759,38.757v31.917c0.068-0.142,0.144-0.278,0.226-0.411
				c0.83-1.332,2.289-2.143,3.86-2.143c9.26,0,16.645-3.105,22.574-9.492c14.803-15.942,15.591-47.297,15.356-58.627H136.486z"/>
		</g>
		<g>
			<path fill="#161616" d="M235.798,275.786h-37.612c-2.512,0-4.546-2.036-4.546-4.546v-30.067c0-7.308,3.496-14.219,9.272-18.603
				v-91.832c0-21.371-17.387-38.757-38.759-38.757h-8.288c-1.789,0-3.413-1.051-4.147-2.682c-0.734-1.634-0.441-3.546,0.747-4.884
				l18.165-20.455c0.954-1.073,2.343-1.638,3.792-1.511c32.158,2.787,57.349,30.265,57.349,62.558v98.098
				c5.409,4.413,8.573,10.999,8.573,18.067v30.067C240.344,273.749,238.309,275.786,235.798,275.786z M202.733,266.693h28.519
				v-25.52c0-4.837-2.432-9.306-6.504-11.952c-1.291-0.838-2.069-2.273-2.069-3.812V125.007c0-26.864-20.383-49.832-46.804-53.256
				l-9.92,11.169c25.554,0.95,46.05,22.037,46.05,47.818v94.244c0,1.607-0.85,3.096-2.235,3.916
				c-4.406,2.602-7.037,7.19-7.037,12.275V266.693z"/>
		</g>
		<g>
			<path fill="#161616" d="M199.796,238.023c-0.107,0-0.213-0.003-0.32-0.012c-1.918-0.133-3.543-1.459-4.061-3.312
				c-9.519-34.092-6.271-55.999-3.543-65.921c-10.718-1.465-19.537-6.82-26.277-15.975c-1.489-2.025-1.055-4.869,0.966-6.358
				c2.02-1.489,4.869-1.057,6.356,0.965c6.284,8.539,14.524,12.689,25.193,12.689c1.57,0,3.029,0.811,3.86,2.143
				c0.83,1.335,0.913,3.001,0.219,4.41c-0.084,0.181-8.792,19.112-0.271,56.709c0.323-0.275,0.654-0.539,0.992-0.796v-91.829
				c0-21.371-17.387-38.757-38.759-38.757h-3.969c-0.154,7.509,0.148,23.807,4.697,38.618c0.737,2.401-0.611,4.943-3.012,5.68
				c-2.396,0.734-4.945-0.607-5.682-3.01c-6.642-21.628-4.98-45.18-4.907-46.172c0.109-1.459,0.915-2.779,2.164-3.543
				c0.843-0.515,1.816-0.713,2.742-0.666h7.967c26.385,0,47.852,21.465,47.852,47.85v94.244c0,1.607-0.85,3.096-2.233,3.913
				c-2.498,1.477-4.469,3.667-5.704,6.331c-0.124,0.266-0.272,0.521-0.445,0.761c-0.107,0.145-0.238,0.302-0.379,0.453
				C202.391,237.431,201.137,238.023,199.796,238.023z"/>
		</g>
		<g>
			<path fill="#161616" d="M84.669,65.277c1.924,1.924,5.042,1.924,6.965,0l5.113-5.112c1.924-1.924,1.924-5.044,0-6.968l0,0
				c-1.922-1.921-5.041-1.921-6.965,0l-5.113,5.115C82.745,60.236,82.745,63.356,84.669,65.277L84.669,65.277z"/>
		</g>
		<g>
			<path fill="#161616" d="M84.669,30.202c-1.924,1.924-1.924,5.041,0,6.965l5.112,5.115c1.924,1.924,5.042,1.924,6.966,0l0,0
				c1.923-1.924,1.923-5.044,0-6.968l-5.113-5.112C89.708,28.278,86.59,28.278,84.669,30.202L84.669,30.202z"/>
		</g>
		<g>
			<path fill="#161616" d="M215.331,65.277c-1.924,1.924-5.042,1.924-6.964,0l-5.113-5.112c-1.924-1.924-1.924-5.044,0-6.968l0,0
				c1.923-1.921,5.041-1.921,6.965,0l5.113,5.115C217.255,60.236,217.255,63.356,215.331,65.277L215.331,65.277z"/>
		</g>
		<g>
			<path fill="#161616" d="M215.331,30.202c1.924,1.924,1.924,5.041,0,6.965l-5.112,5.115c-1.924,1.924-5.042,1.924-6.966,0l0,0
				c-1.923-1.924-1.923-5.044,0-6.968l5.113-5.112C210.292,28.278,213.411,28.278,215.331,30.202L215.331,30.202z"/>
		</g>
		<g>
			<path fill="#161616" d="M170.613,209.353h-40.838c-2.511,0-4.546-2.036-4.546-4.546v-24.248c0-2.51,2.035-4.546,4.546-4.546
				h40.838c2.512,0,4.547,2.036,4.547,4.546v24.248C175.159,207.317,173.124,209.353,170.613,209.353z M134.321,200.26h31.745
				v-15.155h-31.745V200.26z"/>
		</g>
		<g>
			<polygon fill="#161616" points="154.8,262.395 154.8,204.807 145.588,204.807 145.588,262.395 136.235,262.395 136.235,271.239 
				164.153,271.239 164.153,262.395 			"/>
		</g>
	</g>
</g>
</svg>
