<?xml version="1.0" encoding="utf-8"?>
<!-- Generator: Adobe Illustrator 24.3.0, SVG Export Plug-In . SVG Version: 6.00 Build 0)  -->
<svg version="1.1" id="Layer_1" xmlns="http://www.w3.org/2000/svg" xmlns:xlink="http://www.w3.org/1999/xlink" x="0px" y="0px"
	 viewBox="0 0 300 300" enable-background="new 0 0 300 300" xml:space="preserve">
<g>
	<g>
		<g>
			<path fill="#A880B2" d="M270.907,160.435c0-21.323-17.292-38.6-38.609-38.6c-20.708,0-37.568,16.324-38.515,36.801l-0.13-0.055
				l-0.059,0.021c-0.959-20.463-17.807-36.767-38.514-36.767c-21.312,0-38.603,17.277-38.603,38.6c0,9.482,3.439,18.158,9.105,24.88
				h-0.006L193.7,254.11l68.12-68.795h-0.024C267.468,178.593,270.907,169.917,270.907,160.435z"/>
		</g>
		<g>
			<path fill="#B999C1" d="M144.518,185.315h0.006c-5.665-6.722-9.105-15.398-9.105-24.88c0-18.048,12.408-33.154,29.137-37.382
				c-3.037-0.768-6.198-1.218-9.478-1.218c-21.312,0-38.603,17.277-38.603,38.6c0,9.482,3.439,18.158,9.105,24.88h-0.006
				L193.7,254.11l9.472-9.564L144.518,185.315z"/>
		</g>
		<g>
			<path fill="#9AE8CE" d="M125.575,185.315h0.006c-5.666-6.722-9.105-15.398-9.105-24.88c0-21.323,17.292-38.6,38.603-38.6
				c10.52,0,20.027,4.218,26.977,11.039V45.89H29.093V254.11h152.963v-11.757L125.575,185.315z"/>
		</g>
		<g>
			<rect x="29.093" y="45.89" fill="#AEF4DB" width="10.898" height="208.219"/>
		</g>
		<g>
			<g>
				<path fill="#A880B2" d="M88.99,95.654c0,3.016-2.439,5.459-5.458,5.459l0,0c-3.013,0-5.458-2.443-5.458-5.459v-7.113
					c0-3.015,2.445-5.46,5.458-5.46l0,0c3.019,0,5.458,2.445,5.458,5.46V95.654z"/>
			</g>
			<g>
				<path fill="#A880B2" d="M88.99,88.542c0,0,4.754-8.229,17.961-9.91c10.602-1.35,13.308,5.208,13.308,17.16
					c0,14.848-6.251,18.045-14.977,14.387c-10.407-4.365-16.291-14.43-16.291-14.43V88.542z"/>
			</g>
			<g>
				<path fill="#A880B2" d="M78.074,88.542c0,0-4.748-8.229-17.961-9.91c-10.603-1.35-13.302,5.208-13.302,17.16
					c0,14.848,6.251,18.045,14.971,14.387c10.407-4.365,16.291-14.43,16.291-14.43V88.542z"/>
			</g>
		</g>
		<g>
			<g>
				<path fill="#FFDA88" d="M198.466,185.214c0,2.64-2.137,4.777-4.777,4.777l0,0c-2.635,0-4.777-2.137-4.777-4.777v-6.228
					c0-2.634,2.143-4.774,4.777-4.774l0,0c2.64,0,4.777,2.14,4.777,4.774V185.214z"/>
			</g>
			<g>
				<path fill="#FFDA88" d="M198.466,178.986c0,0,4.155-7.199,15.711-8.666c9.282-1.181,11.65,4.552,11.65,15.013
					c0,12.994-5.47,15.794-13.113,12.592c-9.105-3.821-14.249-12.627-14.249-12.627V178.986z"/>
			</g>
			<g>
				<path fill="#FFDA88" d="M188.911,178.986c0,0-4.15-7.199-15.711-8.666c-9.276-1.181-11.644,4.552-11.644,15.013
					c0,12.994,5.47,15.794,13.101,12.592c9.105-3.821,14.255-12.627,14.255-12.627V178.986z"/>
			</g>
		</g>
		<g>
			<g>
				<path fill="#A880B2" d="M94.04,102.185c-3.286-3.433-5.05-6.437-5.05-6.437v-0.095c0,3.016-2.439,5.459-5.458,5.459
					c-3.013,0-5.458-2.443-5.458-5.459v0.095c0,0-1.764,3.003-5.05,6.437H94.04z"/>
			</g>
			<g>
				<path fill="#A880B2" d="M78.145,87.836h-0.551c0.32,0.437,0.48,0.706,0.48,0.706C78.074,88.3,78.115,88.069,78.145,87.836z"/>
			</g>
			<g>
				<path fill="#A880B2" d="M119.661,87.836c0.426,2.285,0.598,4.949,0.598,7.956c0,2.451-0.183,4.555-0.509,6.394h62.307v-14.35
					H119.661z"/>
			</g>
			<g>
				<path fill="#A880B2" d="M88.919,87.836c0.029,0.234,0.071,0.465,0.071,0.706c0,0,0.16-0.27,0.479-0.706H88.919z"/>
			</g>
			<g>
				<path fill="#A880B2" d="M46.811,95.792c0-3.007,0.171-5.671,0.598-7.956H29.093v14.35H47.32
					C47,100.347,46.811,98.243,46.811,95.792z"/>
			</g>
		</g>
		<g>
			<path fill="#A880B2" d="M78.074,88.543c0-3.015,2.445-5.46,5.458-5.46c3.019,0,5.458,2.445,5.458,5.46
				c0,0,0.539-0.912,1.717-2.183V45.89h-14.35v40.468C77.541,87.63,78.074,88.543,78.074,88.543z"/>
		</g>
		<g>
			<path fill="#A880B2" d="M88.99,95.75v-0.095c0,3.016-2.439,5.459-5.458,5.459c-3.013,0-5.458-2.443-5.458-5.459v0.095
				c0,0-0.586,1.004-1.717,2.513V254.11h14.35V98.263C89.582,96.754,88.99,95.75,88.99,95.75z"/>
		</g>
		<g>
			<path fill="#FFDA88" d="M267.349,176.571h-42.522c0.693,2.356,1.001,5.268,1.001,8.761c0,0.938-0.035,1.805-0.095,2.64h33.459
				l2.628-2.658h-0.024C264.022,182.681,265.887,179.738,267.349,176.571z"/>
		</g>
		<g>
			<path fill="#FFDA88" d="M161.556,185.333c0-3.493,0.302-6.405,1-8.761h-42.522c1.462,3.167,3.327,6.109,5.547,8.743h-0.006
				l2.634,2.658h33.441C161.591,187.138,161.556,186.271,161.556,185.333z"/>
		</g>
		<g>
			<path fill="#FFE2A9" d="M147.153,187.973l-2.635-2.658h0.006c-2.22-2.634-4.085-5.576-5.547-8.743h-18.944l0,0
				c0.681,1.477,1.468,2.894,2.32,4.265c0.142,0.222,0.284,0.441,0.426,0.66c0.864,1.326,1.782,2.614,2.8,3.818h-0.006l2.634,2.658
				H147.153z"/>
		</g>
		<g>
			<path fill="#9AE8CE" d="M235.346,101.871c1.924-1.924,1.924-5.044,0-6.965l-5.115-5.113c-1.918-1.924-5.038-1.925-6.962-0.003
				l0,0c-1.924,1.923-1.924,5.042,0,6.966l5.115,5.115C230.309,103.796,233.428,103.793,235.346,101.871L235.346,101.871z"/>
		</g>
		<g>
			<path fill="#9AE8CE" d="M248.648,104.127c1.924,1.924,5.044,1.921,6.967,0l5.109-5.112c1.924-1.926,1.924-5.039,0.006-6.963l0,0
				c-1.924-1.927-5.044-1.926-6.968,0l-5.115,5.109C246.724,99.089,246.73,102.206,248.648,104.127L248.648,104.127z"/>
		</g>
		<g>
			<rect x="29.093" y="87.836" fill="#B999C1" width="10.898" height="14.35"/>
		</g>
	</g>
	<g>
		<g>
			<path fill="#161616" d="M193.7,258.656c-1.214,0-2.377-0.485-3.229-1.347l-68.126-68.795c-0.086-0.087-0.169-0.178-0.249-0.271
				c-6.556-7.788-10.167-17.663-10.167-27.808c0-23.792,19.358-43.147,43.15-43.147c16.883,0,31.544,9.676,38.609,23.903
				c7.068-14.228,21.723-23.903,38.609-23.903c23.795,0,43.156,19.355,43.156,43.147c0,10.004-3.514,19.744-9.901,27.472
				c-0.148,0.215-0.314,0.417-0.503,0.605l-28.22,28.501c-1.764,1.783-4.641,1.798-6.429,0.033c-1.785-1.767-1.797-4.646-0.03-6.429
				l27.933-28.213c0.006-0.007,0.012-0.015,0.018-0.022c5.183-6.145,8.039-13.94,8.039-21.948c0-18.778-15.279-34.054-34.063-34.054
				c-18.209,0-33.13,14.259-33.974,32.465c-0.068,1.484-0.855,2.84-2.113,3.633c-1.154,0.73-2.557,0.897-3.848,0.475
				c-0.453-0.127-0.885-0.327-1.282-0.595c-1.19-0.802-1.963-2.11-2.028-3.544c-0.852-18.187-15.776-32.433-33.974-32.433
				c-18.778,0-34.057,15.276-34.057,34.054c0,7.949,2.812,15.688,7.921,21.815l64.757,65.398l22.493-22.714
				c1.761-1.783,4.638-1.8,6.429-0.031c1.785,1.767,1.797,4.646,0.03,6.43l-25.722,25.976
				C196.077,258.171,194.914,258.656,193.7,258.656z"/>
		</g>
		<g>
			<path fill="#161616" d="M182.056,258.656H29.093c-2.51,0-4.546-2.035-4.546-4.546V45.891c0-2.511,2.036-4.546,4.546-4.546
				h111.696c2.51,0,4.546,2.035,4.546,4.546c0,2.512-2.036,4.546-4.546,4.546H33.639v199.126h143.87v-5.34l-55.164-55.709
				c-0.089-0.087-0.169-0.178-0.249-0.271c-6.556-7.788-10.167-17.663-10.167-27.808c0-23.792,19.358-43.147,43.15-43.147
				c8.024,0,15.735,2.195,22.43,6.297V50.437h-16.576c-2.51,0-4.546-2.035-4.546-4.546c0-2.511,2.036-4.546,4.546-4.546h21.122
				c2.51,0,4.546,2.035,4.546,4.546v86.983c0,1.831-1.098,3.484-2.788,4.193c-1.687,0.707-3.632,0.337-4.943-0.949
				c-6.396-6.278-14.847-9.737-23.792-9.737c-18.778,0-34.057,15.276-34.057,34.054c0,7.949,2.812,15.688,7.921,21.815
				l56.342,56.905c0.844,0.851,1.317,2.001,1.317,3.198v11.757C186.602,256.621,184.566,258.656,182.056,258.656z"/>
		</g>
		<g>
			<g>
				<path fill="#161616" d="M83.532,105.66c-5.517,0-10.005-4.489-10.005-10.006v-7.113c0-5.517,4.487-10.006,10.005-10.006
					c5.517,0,10.005,4.489,10.005,10.006v7.113C93.536,101.172,89.049,105.66,83.532,105.66z M83.532,87.628
					c-0.503,0-0.912,0.41-0.912,0.913v7.113c0,0.503,0.409,0.913,0.912,0.913c0.503,0,0.912-0.41,0.912-0.913v-7.113
					C84.444,88.038,84.035,87.628,83.532,87.628z"/>
			</g>
			<g>
				<path fill="#161616" d="M111.21,116.099c-2.152,0-4.7-0.475-7.687-1.727c-11.674-4.896-18.186-15.864-18.458-16.328
					c-0.408-0.696-0.622-1.487-0.622-2.294v-7.207c0-0.799,0.21-1.583,0.61-2.275c0.24-0.416,6.056-10.201,21.323-12.145
					c5.399-0.69,9.7,0.346,12.799,3.074c4.99,4.394,5.63,12.247,5.63,18.596c0,9.294-2.235,15.3-6.834,18.359
					C116.431,115.174,114.209,116.099,111.21,116.099z M93.536,94.405c1.637,2.38,6.426,8.612,13.503,11.581
					c1.554,0.653,4.384,1.597,5.893,0.593c0.654-0.434,2.779-2.492,2.779-10.787c0-6.324-0.855-10.284-2.546-11.772
					c-1.051-0.926-2.957-1.224-5.642-0.879c-8.329,1.061-12.506,5.07-13.989,6.863V94.405z"/>
			</g>
			<g>
				<path fill="#161616" d="M55.857,116.099c-2.998,0-5.218-0.924-6.755-1.948c-4.6-3.058-6.837-9.063-6.837-18.359
					c0-6.746,0.669-14.23,5.627-18.597c3.093-2.728,7.403-3.762,12.796-3.072C75.96,76.066,81.771,85.854,82.01,86.27
					c0.4,0.691,0.61,1.474,0.61,2.272v7.207c0,0.807-0.213,1.598-0.622,2.294c-0.272,0.465-6.784,11.433-18.458,16.328
					C60.557,115.623,58.005,116.099,55.857,116.099z M57.538,83.004c-1.652,0-2.871,0.339-3.638,1.015
					c-1.687,1.486-2.542,5.448-2.542,11.773c0,8.295,2.125,10.354,2.779,10.787c1.498,1.003,4.333,0.058,5.887-0.593
					c7.074-2.966,11.86-9.192,13.503-11.582v-4.401c-1.48-1.791-5.653-5.8-13.989-6.861C58.814,83.049,58.148,83.004,57.538,83.004z
					"/>
			</g>
		</g>
		<g>
			<g>
				<path fill="#161616" d="M198.466,185.214c0,2.64-2.137,4.777-4.777,4.777l0,0c-2.635,0-4.777-2.137-4.777-4.777v-6.228
					c0-2.634,2.143-4.774,4.777-4.774l0,0c2.64,0,4.777,2.14,4.777,4.774V185.214z"/>
			</g>
			<g>
				<path fill="#161616" d="M217.91,203.674c-1.953,0-4.259-0.429-6.953-1.557c-10.386-4.36-16.176-14.113-16.416-14.526
					c-0.408-0.697-0.622-1.487-0.622-2.294v-6.311c0-0.798,0.21-1.582,0.61-2.273c0.216-0.373,5.44-9.171,19.074-10.904
					c4.905-0.626,8.818,0.329,11.653,2.83c4.538,3.994,5.118,11.02,5.118,16.694c0,8.338-2.039,13.749-6.234,16.539
					C222.717,202.817,220.668,203.674,217.91,203.674z M203.012,183.944c1.48,2.125,5.538,7.302,11.461,9.787
					c2.105,0.883,3.836,1.097,4.629,0.57c1.054-0.7,2.178-3.425,2.178-8.969c0-6.678-1.107-9.054-2.033-9.871
					c-0.793-0.699-2.309-0.91-4.496-0.632c-6.867,0.873-10.401,4.089-11.739,5.645V183.944z"/>
			</g>
			<g>
				<path fill="#161616" d="M169.47,203.674c-2.756,0-4.804-0.855-6.225-1.8c-4.197-2.79-6.237-8.201-6.237-16.542
					c0-5.676,0.58-12.701,5.118-16.696c2.839-2.5,6.76-3.447,11.647-2.827c13.642,1.732,18.861,10.531,19.077,10.906
					c0.397,0.69,0.607,1.472,0.607,2.27v6.311c0,0.807-0.216,1.598-0.622,2.295c-0.243,0.413-6.035,10.166-16.422,14.524
					C173.727,203.245,171.421,203.674,169.47,203.674z M170.924,174.711c-1.288,0-2.223,0.25-2.788,0.749
					c-0.926,0.818-2.034,3.194-2.034,9.873c0,5.545,1.125,8.27,2.179,8.97c0.781,0.522,2.507,0.314,4.617-0.571
					c5.905-2.477,9.981-7.663,11.467-9.79v-3.469c-1.338-1.554-4.869-4.77-11.736-5.642
					C172.004,174.751,171.436,174.711,170.924,174.711z"/>
			</g>
		</g>
		<g>
			<g>
				<path fill="#161616" d="M94.04,106.732H73.024c-1.82,0-3.466-1.086-4.182-2.76c-0.713-1.675-0.361-3.614,0.897-4.93
					c2.178-2.276,3.611-4.348,4.165-5.199c0.699-1.609,2.303-2.735,4.171-2.735c2.51,0,4.547,2.035,4.547,4.546
					c0,0.503,0.409,0.913,0.912,0.913c0.503,0,0.912-0.41,0.912-0.913c0-2.511,2.036-4.546,4.547-4.546
					c1.868,0,3.472,1.126,4.171,2.737c0.55,0.843,1.983,2.918,4.165,5.198c1.258,1.316,1.61,3.254,0.897,4.93
					C97.506,105.646,95.86,106.732,94.04,106.732z"/>
			</g>
			<g>
				<path fill="#161616" d="M78.103,93.121c-1.587,0-3.102-0.847-3.94-2.258c-0.009-0.015-0.098-0.148-0.237-0.34
					c-1.012-1.382-1.163-3.216-0.388-4.743c0.776-1.527,2.341-2.489,4.055-2.489h0.551c1.305,0,2.549,0.561,3.41,1.541
					c0.864,0.978,1.264,2.282,1.101,3.577c-0.003,0.016-0.027,0.189-0.03,0.207c0,2.047-1.37,3.806-3.345,4.348
					C78.891,93.069,78.494,93.121,78.103,93.121z"/>
			</g>
			<g>
				<path fill="#161616" d="M182.056,106.732H119.75c-1.344,0-2.619-0.595-3.484-1.625c-0.864-1.03-1.228-2.39-0.992-3.715
					c0.29-1.646,0.438-3.53,0.438-5.6c0-2.914-0.172-5.243-0.521-7.123c-0.249-1.329,0.109-2.698,0.971-3.738
					c0.864-1.04,2.146-1.641,3.499-1.641h62.395c2.51,0,4.546,2.035,4.546,4.546v14.35
					C186.602,104.697,184.566,106.732,182.056,106.732z M124.773,97.639h52.737v-5.257h-52.784c0.053,1.069,0.08,2.202,0.08,3.41
					C124.805,96.424,124.793,97.038,124.773,97.639z"/>
			</g>
			<g>
				<path fill="#161616" d="M88.987,93.067c-0.409,0-0.823-0.056-1.228-0.172c-1.957-0.557-3.315-2.322-3.315-4.354
					c-0.163-1.295,0.219-2.665,1.083-3.645c0.861-0.978,2.087-1.607,3.392-1.607h0.551c1.714,0,3.28,0.962,4.055,2.489
					c0.775,1.527,0.624,3.361-0.388,4.743c-0.139,0.192-0.228,0.326-0.257,0.376C92.033,92.264,90.541,93.067,88.987,93.067z"/>
			</g>
			<g>
				<path fill="#161616" d="M47.32,106.732H29.093c-2.51,0-4.546-2.035-4.546-4.547v-14.35c0-2.511,2.036-4.546,4.546-4.546h18.316
					c1.353,0,2.634,0.601,3.499,1.641c0.861,1.04,1.22,2.409,0.971,3.738c-0.349,1.88-0.521,4.209-0.521,7.123
					c0,2.039,0.148,3.928,0.441,5.615c0.231,1.322-0.136,2.677-1,3.704C49.937,106.138,48.661,106.732,47.32,106.732z
					 M33.639,97.639H42.3c-0.024-0.607-0.035-1.222-0.035-1.847c0-1.208,0.027-2.341,0.08-3.41h-8.705V97.639z"/>
			</g>
		</g>
		<g>
			<path fill="#161616" d="M78.074,93.09c-1.572,0-3.066-0.817-3.901-2.211c-0.036-0.059-0.406-0.629-1.143-1.421
				c-0.784-0.842-1.219-1.949-1.219-3.099V45.891c0-2.511,2.036-4.546,4.547-4.546h14.35c2.51,0,4.547,2.035,4.547,4.546v40.47
				c0,1.146-0.432,2.249-1.211,3.09c-0.787,0.847-1.163,1.445-1.166,1.45c-1.074,1.721-3.179,2.546-5.124,1.989
				c-1.951-0.558-3.309-2.318-3.309-4.347c0-0.503-0.409-0.913-0.912-0.913c-0.503,0-0.912,0.41-0.912,0.913
				c0,2.054-1.376,3.852-3.36,4.388C78.867,93.039,78.467,93.09,78.074,93.09z M83.532,78.537c0.909,0,1.791,0.121,2.628,0.351
				V50.437h-5.257v28.451C81.741,78.658,82.623,78.537,83.532,78.537z"/>
		</g>
		<g>
			<path fill="#161616" d="M90.707,258.656h-14.35c-2.51,0-4.547-2.035-4.547-4.546V98.263c0-0.983,0.32-1.939,0.909-2.726
				c0.545-0.728,0.941-1.316,1.178-1.683c0.699-1.615,2.306-2.745,4.176-2.745c2.51,0,4.547,2.035,4.547,4.546
				c0,0.503,0.409,0.913,0.912,0.913c0.503,0,0.912-0.41,0.912-0.913c0-2.511,2.036-4.546,4.547-4.546
				c1.868,0,3.472,1.126,4.171,2.736c0.243,0.371,0.642,0.965,1.193,1.702c0.583,0.784,0.9,1.737,0.9,2.716V254.11
				C95.253,256.621,93.217,258.656,90.707,258.656z M80.903,249.563h5.257V105.311c-1.675,0.459-3.582,0.459-5.257,0V249.563z"/>
		</g>
		<g>
			<g>
				<path fill="#161616" d="M259.192,192.519h-33.459c-1.261,0-2.466-0.524-3.327-1.447c-0.858-0.923-1.296-2.162-1.208-3.42
					c0.05-0.734,0.083-1.495,0.083-2.319c0-3.121-0.275-5.637-0.817-7.48c-0.403-1.373-0.136-2.859,0.722-4.006
					c0.858-1.147,2.208-1.822,3.641-1.822h42.522c1.551,0,2.995,0.79,3.83,2.096c0.835,1.307,0.947,2.948,0.299,4.357
					c-1.578,3.411-3.57,6.583-5.926,9.433c-0.148,0.212-0.314,0.413-0.5,0.601l-2.628,2.658
					C261.571,192.034,260.405,192.519,259.192,192.519z M230.344,183.426h26.95l1.006-1.018c0.009-0.009,0.015-0.019,0.024-0.028
					c0.346-0.411,0.687-0.833,1.015-1.262h-29.129C230.273,181.856,230.318,182.626,230.344,183.426z"/>
			</g>
			<g>
				<path fill="#161616" d="M161.65,192.519h-33.441c-1.214,0-2.377-0.484-3.229-1.347l-2.634-2.658
					c-0.089-0.087-0.172-0.179-0.252-0.274c-2.474-2.945-4.555-6.231-6.189-9.763c-0.648-1.409-0.536-3.05,0.299-4.357
					c0.835-1.305,2.279-2.096,3.83-2.096h42.522c1.436,0,2.785,0.678,3.644,1.826c0.858,1.15,1.122,2.637,0.716,4.012
					c-0.548,1.846-0.814,4.289-0.814,7.469c0,0.824,0.033,1.585,0.083,2.319c0.089,1.258-0.349,2.497-1.208,3.42
					C164.116,191.995,162.911,192.519,161.65,192.519z M130.106,183.426h26.932c0.027-0.802,0.071-1.57,0.133-2.309H128.04
					c0.293,0.385,0.595,0.762,0.906,1.134L130.106,183.426z"/>
			</g>
		</g>
		<g>
			<path fill="#161616" d="M235.346,101.871c1.924-1.924,1.924-5.044,0-6.965l-5.115-5.113c-1.918-1.924-5.038-1.925-6.962-0.003
				l0,0c-1.924,1.923-1.924,5.042,0,6.966l5.115,5.115C230.309,103.796,233.428,103.793,235.346,101.871L235.346,101.871z"/>
		</g>
		<g>
			<path fill="#161616" d="M248.648,104.127c1.924,1.924,5.044,1.921,6.967,0l5.109-5.112c1.924-1.926,1.924-5.039,0.006-6.963l0,0
				c-1.924-1.927-5.044-1.926-6.968,0l-5.115,5.109C246.724,99.089,246.73,102.206,248.648,104.127L248.648,104.127z"/>
		</g>
	</g>
</g>
</svg>
